<?xml version="1.0" encoding="UTF-8"?>
<!-- Generator: visioncortex VTracer 0.6.12 -->
<svg version="1.1" xmlns="http://www.w3.org/2000/svg" width="346" height="619">
<path d="M0 0 C0.763 -0.021 1.526 -0.043 2.312 -0.064 C5.193 -0.083 7.549 0.048 10.198 1.233 C13.016 4.388 12.492 7.84 12.391 11.855 C12.385 12.695 12.379 13.534 12.373 14.399 C12.351 17.079 12.301 19.758 12.25 22.438 C12.23 24.255 12.212 26.072 12.195 27.889 C12.151 32.343 12.082 36.796 12 41.25 C12.533 41.241 12.533 41.241 15.23 41.195 C18.191 41.238 20.488 41.404 23.312 42.133 C24.07 42.327 24.828 42.522 25.609 42.722 C26.003 42.83 26.003 42.83 28 43.375 C28.416 43.488 28.416 43.488 30.522 44.057 C49.6 49.381 65.516 57.877 80 71.25 C80.959 72.127 81.918 73.003 82.906 73.906 C100.685 90.886 109.062 110.942 113.812 134.812 C113.949 135.48 114.085 136.147 114.226 136.834 C114.924 140.595 115.042 143.558 114 147.25 C107.96 148.69 101.96 149.765 95.801 150.539 C94.962 150.647 94.123 150.755 93.259 150.867 C91.502 151.092 89.745 151.316 87.988 151.537 C85.308 151.876 82.63 152.222 79.951 152.57 C78.234 152.79 76.518 153.008 74.801 153.227 C74.007 153.33 73.213 153.433 72.395 153.539 C68.232 154.058 64.206 154.36 60 154.25 C59.853 154.867 59.706 155.485 59.555 156.121 C56.862 166.29 51.085 175.949 41.883 181.535 C32.833 186.159 22.335 187.117 12.527 184.227 C-0.343 178.215 -7.177 168.501 -12.031 155.484 C-16.512 140.631 -15.294 123.355 -8.312 109.562 C-2.572 99.789 3.938 93.117 14.914 89.645 C23.63 87.996 32.35 88.638 40 93.25 C52.271 102.367 58.356 113.676 62 128.25 C62 133.86 62 139.47 62 145.25 C68.93 144.26 68.93 144.26 104 139.25 C101.573 119.835 94.502 103.439 82 88.25 C81.29 87.386 80.579 86.523 79.848 85.633 C62.123 65.056 39.397 55.015 13.04 50.667 C8.392 49.839 5.805 49.102 3 45.25 C2.651 42.36 2.532 39.864 2.609 36.984 C2.615 36.191 2.621 35.398 2.627 34.58 C2.649 32.053 2.699 29.527 2.75 27 C2.77 25.284 2.788 23.568 2.805 21.852 C2.845 17.65 2.924 13.452 3 9.25 C-8.55 9.25 -20.1 9.25 -32 9.25 C-31.67 13.87 -31.34 18.49 -31 23.25 C-30.893 26.968 -30.815 30.659 -30.812 34.375 C-30.8 35.28 -30.788 36.185 -30.775 37.117 C-30.773 37.989 -30.772 38.86 -30.77 39.758 C-30.765 40.528 -30.761 41.297 -30.757 42.09 C-31.037 44.583 -31.629 46.153 -33 48.25 C-35.949 49.375 -35.949 49.375 -39.688 50.25 C-40.357 50.415 -41.027 50.581 -41.718 50.751 C-45.036 51.569 -48.366 52.335 -51.695 53.109 C-79.779 60.024 -103.044 75.296 -118.379 100.039 C-127.58 115.393 -131.993 131.395 -133 149.25 C-133.054 150.014 -133.108 150.779 -133.164 151.566 C-134.061 175.012 -125.461 201.224 -109.688 218.688 C-90.164 239.136 -62.118 248.708 -35.578 256.342 C-33 257.25 -33 257.25 -31 259.25 C-30.713 262.167 -30.713 262.167 -30.656 265.867 C-30.642 266.521 -30.627 267.174 -30.612 267.848 C-30.565 269.94 -30.531 272.032 -30.5 274.125 C-30.459 276.873 -30.405 279.62 -30.344 282.367 C-30.325 283.59 -30.306 284.814 -30.287 286.074 C-30.014 289.097 -29.748 290.799 -28 293.25 C-25.415 294.5 -23.007 295.502 -20.312 296.438 C-19.617 296.697 -18.922 296.957 -18.205 297.225 C-6.93 301.299 -6.93 301.299 -1.062 298.812 C-0.557 298.555 -0.557 298.555 2 297.25 C2.025 296.473 2.05 295.696 2.076 294.895 C2.192 291.388 2.314 287.882 2.438 284.375 C2.477 283.152 2.516 281.928 2.557 280.668 C2.578 280.085 2.578 280.085 2.684 277.133 C2.702 276.593 2.702 276.593 2.795 273.864 C3 271.25 3 271.25 4 269.25 C12.768 268.407 20.414 271.75 27.625 276.625 C31.701 278.587 33.832 278.262 38.195 277.625 C52.986 275.647 64.167 278.974 76.043 287.762 C81.722 292.375 84.826 297.441 87.211 304.293 C88.392 307.221 90.2 309.671 92 312.25 C92.902 314.957 93.119 316.488 93.098 319.262 C93.095 319.945 93.093 320.627 93.09 321.331 C93.081 322.191 93.072 323.051 93.062 323.938 C93.042 326.681 93.021 329.424 93 332.25 C98.61 332.25 104.22 332.25 110 332.25 C110.794 300.384 108.113 272.941 85.266 248.617 C84.518 247.836 83.77 247.055 83 246.25 C82.657 245.87 82.657 245.87 80.922 243.945 C69.502 231.722 53.494 223.958 38.004 218.121 C36 217.25 36 217.25 35 215.25 C34.96 213.25 34.957 211.25 35 209.25 C39.035 207.582 42.226 209.064 46.062 210.562 C46.757 210.83 47.452 211.098 48.167 211.374 C67.196 218.972 83.485 229.988 99 243.25 C99.842 243.968 100.684 244.686 101.551 245.426 C119.956 261.541 135.195 281.929 143 305.25 C143.246 305.954 143.492 306.658 143.746 307.383 C146.897 317.769 145.61 329.018 140.816 338.621 C137.157 344.768 132.355 348.978 126 352.25 C124.024 352.643 122.045 353.018 120.062 353.375 C115.38 354.736 113.512 356.607 111.145 360.707 C109.217 364.391 107.438 368.141 105.652 371.895 C102.317 378.861 98.025 384.405 93 390.25 C92.246 391.177 91.492 392.104 90.715 393.059 C77.293 408.855 59.181 419.096 40 426.25 C40.116 427.01 40.232 427.771 40.351 428.554 C40.883 432.056 41.41 435.559 41.938 439.062 C42.12 440.258 42.302 441.454 42.49 442.686 C46.632 470.32 43.777 495.26 38.476 522.442 C38.322 523.232 38.168 524.022 38.01 524.836 C37.718 526.325 37.425 527.813 37.129 529.301 C36.282 533.607 35.585 537.903 35 542.25 C36.088 542.215 37.176 542.18 38.297 542.145 C54.595 541.776 69.994 544.665 82.305 556.332 C86.268 560.816 88.923 564.939 89.125 571 C87.55 575.551 85.52 577.915 81.23 580.188 C62.26 587.732 35.775 582.342 17.57 574.836 C12.143 572.086 6.575 568.974 4 563.25 C3.628 554.307 5.917 545.677 8.25 537.125 C10.813 527.324 13.052 517.529 14.875 507.562 C14.976 507.011 14.976 507.011 15.489 504.22 C19.58 481.292 20.456 455.617 13 433.25 C12.985 434.295 12.971 435.339 12.956 436.415 C12.898 440.29 12.821 444.164 12.738 448.039 C12.704 449.716 12.676 451.393 12.654 453.07 C12.62 455.481 12.568 457.89 12.512 460.301 C12.505 461.051 12.499 461.801 12.492 462.574 C12.345 467.779 12.345 467.779 10.755 469.949 C8.518 471.607 7.253 471.624 4.484 471.622 C3.573 471.629 2.662 471.635 1.724 471.641 C1.233 471.637 1.233 471.637 -1.25 471.613 C-2.26 471.614 -3.269 471.614 -4.31 471.615 C-6.445 471.612 -8.58 471.603 -10.715 471.586 C-13.987 471.563 -17.259 471.566 -20.531 471.572 C-22.604 471.567 -24.677 471.56 -26.75 471.551 C-27.731 471.552 -28.713 471.553 -29.724 471.554 C-30.635 471.544 -31.546 471.534 -32.484 471.525 C-33.286 471.52 -34.087 471.515 -34.913 471.511 C-37 471.25 -37 471.25 -40 469.25 C-41.176 465.378 -41.192 461.443 -41.316 457.418 C-41.358 456.126 -41.4 454.833 -41.443 453.502 C-41.483 452.147 -41.523 450.792 -41.562 449.438 C-41.606 448.063 -41.649 446.689 -41.693 445.314 C-41.799 441.96 -41.901 438.605 -42 435.25 C-45.618 459.691 -45.618 459.691 -46 467.25 C-46.053 468.226 -46.106 469.202 -46.16 470.207 C-46.819 494.34 -41.031 519.481 -35.188 542.75 C-31.191 558.892 -31.191 558.892 -34.375 566.562 C-47.03 579.519 -67.662 582.302 -84.958 582.599 C-86.107 582.607 -87.255 582.616 -88.438 582.625 C-89.539 582.639 -90.641 582.653 -91.776 582.667 C-99.723 582.621 -106.631 581.917 -113 576.875 C-115.142 574.064 -115.632 572.707 -116 569.25 C-114.167 560.868 -109.564 555.28 -102.559 550.629 C-89.227 542.848 -77.062 541.677 -62 542.25 C-62.696 532.694 -64.619 523.439 -66.5 514.062 C-66.984 511.634 -67.466 509.206 -67.947 506.777 C-68.244 505.276 -68.543 503.775 -68.845 502.275 C-70.726 492.821 -71.276 483.617 -71.312 474 C-71.316 473.279 -71.32 472.558 -71.323 471.815 C-71.391 438.032 -71.391 438.032 -66 427.25 C-66.619 427.137 -66.619 427.137 -69.75 426.562 C-96.576 420.504 -119.312 401.896 -134 379.25 C-137.869 372.82 -141.291 366.189 -144 359.188 C-145.754 355.035 -148.31 353.189 -151.977 350.695 C-159.392 345.399 -162.672 337.783 -164.75 329.125 C-167.274 300.094 -149.571 273.773 -132 252.25 C-128.462 248.13 -124.739 244.188 -121 240.25 C-119.593 238.76 -118.196 237.261 -116.812 235.75 C-116.262 235.162 -115.712 234.574 -115.145 233.969 C-114 232.25 -114 232.25 -114 228.25 C-115.434 226.602 -115.434 226.602 -117.438 224.875 C-133.976 209.038 -142.676 183.411 -143.203 160.969 C-143.564 128.001 -134.825 98.372 -111.438 74.188 C-92.006 54.99 -66.435 45.076 -40 40.25 C-40.162 39.233 -40.323 38.215 -40.49 37.167 C-41.276 31.134 -41.184 25.139 -41.188 19.062 C-41.2 17.792 -41.212 16.522 -41.225 15.213 C-41.227 13.994 -41.228 12.775 -41.23 11.52 C-41.235 10.412 -41.239 9.304 -41.243 8.163 C-41.005 5.311 -40.48 3.665 -39 1.25 C-12.237 0.167 -12.237 0.167 0 0 Z M1 107.25 C-4.805 116.607 -7.389 125.653 -7.312 136.562 C-7.308 137.397 -7.303 138.232 -7.298 139.091 C-7.071 151.039 -3.509 162.505 5 171.25 C11.929 176.653 18.672 179.835 27.598 179.637 C34.002 178.606 40.39 174.72 45 170.25 C46.025 168.598 47.028 166.933 48 165.25 C47.227 165.224 46.453 165.198 45.656 165.172 C38.253 164.769 31.889 164.169 26.473 158.711 C20.446 151.06 20.721 142.555 21 133.25 C23.31 133.91 25.62 134.57 28 135.25 C30.562 133.125 30.562 133.125 33 130.25 C33.062 127.188 33.062 127.188 32 124.25 C31.299 123.569 30.597 122.889 29.875 122.188 C28 120.25 28 120.25 27.812 117.75 C29.246 114.731 31.004 113.475 33.961 111.973 C38.212 110.466 42.281 110.562 46.5 112.25 C46.748 112.415 46.748 112.415 48 113.25 C45.139 104.904 39.634 101.116 32 97.25 C20.229 93.448 8.788 98.085 1 107.25 Z M-105 236.25 C-129.831 256.456 -153.179 288.398 -156.805 320.703 C-157.301 329.722 -154.885 336.386 -149 343.25 C-141.29 350.809 -129.907 352.158 -119.562 352.438 C-82.123 351.923 -47.045 335.769 -13.258 321.328 C8.392 312.095 8.392 312.095 19 309.25 C18.67 306.94 18.34 304.63 18 302.25 C14.993 300.911 13.696 301.344 10.486 302.339 C9.068 302.897 7.655 303.467 6.246 304.047 C5.482 304.351 4.718 304.656 3.93 304.969 C1.428 305.969 -1.067 306.985 -3.562 308 C-5.301 308.697 -7.039 309.392 -8.778 310.087 C-16.327 313.11 -23.856 316.177 -31.359 319.312 C-33.51 320.209 -35.661 321.105 -37.812 322 C-38.332 322.217 -38.332 322.217 -40.962 323.314 C-47.153 325.844 -53.389 328.095 -59.746 330.16 C-60.494 330.404 -61.242 330.648 -62.013 330.899 C-65.676 332.085 -69.345 333.247 -73.027 334.372 C-80.316 336.651 -85.515 338.871 -91 344.25 C-93.97 345.643 -96.717 346.197 -100 346.25 C-101.648 345.539 -103.295 344.818 -104.883 343.98 C-107.834 342.962 -110.448 343.122 -113.562 343.188 C-123.971 343.387 -134.784 343.429 -143 336.25 C-147.73 331.062 -147.489 325.118 -147.332 318.414 C-145.987 294.556 -126.717 270.759 -111 254.25 C-109.721 252.799 -108.449 251.341 -107.188 249.875 C-105.225 247.606 -103.225 245.453 -101.062 243.375 C-99 241.25 -99 241.25 -99 239.25 C-100.98 238.26 -102.96 237.27 -105 236.25 Z M-97.688 250.25 C-97.959 250.503 -97.959 250.503 -99.335 251.782 C-103.522 255.716 -107.4 259.768 -111 264.25 C-111.367 264.698 -111.367 264.698 -113.223 266.965 C-125.71 282.658 -137.948 299.8 -140 320.25 C-137.855 319.92 -137.855 319.92 -127 318.25 C-126.773 316.311 -126.546 314.373 -126.312 312.375 C-124.848 302.842 -121.098 294.1 -113.223 288.152 C-98.299 278.874 -81.374 274.41 -63.875 278.438 C-58.811 279.831 -54.227 281.848 -49.57 284.262 C-46.547 285.424 -44.213 285.493 -41 285.25 C-40 284.25 -40 284.25 -39.886 282.392 C-39.892 281.602 -39.897 280.811 -39.902 279.996 C-39.906 279.142 -39.909 278.288 -39.912 277.408 C-39.92 276.51 -39.929 275.613 -39.938 274.688 C-39.942 273.786 -39.947 272.884 -39.951 271.955 C-39.963 269.72 -39.979 267.485 -40 265.25 C-45.539 262.755 -51.155 260.849 -56.938 259 C-67.413 255.583 -77.507 251.584 -87.316 246.547 C-92.378 244.101 -94.013 246.815 -97.688 250.25 Z M12 280.25 C12 283.88 12 287.51 12 291.25 C12.382 290.858 12.382 290.858 14.312 288.875 C17 286.25 17 286.25 20 284.25 C20 283.59 20 282.93 20 282.25 C17.094 280.993 15.204 280.25 12 280.25 Z M-107 293.25 C-107.329 293.476 -107.329 293.476 -108.996 294.621 C-113.952 298.384 -117.119 303.313 -119 309.25 C-118.625 311.555 -118.625 311.555 -118 313.25 C-117.576 312.526 -117.152 311.801 -116.715 311.055 C-111.611 302.641 -106.652 296.22 -97 293.25 C-96.01 293.91 -95.02 294.57 -94 295.25 C-95.383 298.552 -96.78 300.043 -99.75 302 C-106.193 306.642 -110.534 312.716 -113 320.25 C-113.363 324.539 -113.351 327.577 -111 331.25 C-110.34 331.25 -109.68 331.25 -109 331.25 C-108.853 330.477 -108.706 329.703 -108.555 328.906 C-106.276 318.327 -101.753 311.593 -93 305.25 C-89.148 302.984 -87.516 302.25 -83 302.25 C-83 303.57 -83 304.89 -83 306.25 C-84.723 307.891 -84.723 307.891 -87.062 309.5 C-94.153 314.737 -100.003 320.413 -102 329.25 C-102.5 333.062 -102.5 333.062 -102 336.25 C-99.5 338.188 -99.5 338.188 -97 339.25 C-89.38 335.555 -84.568 327.846 -79.773 321.133 C-77.653 318.881 -75.97 318.065 -73 317.25 C-72.01 317.58 -71.02 317.91 -70 318.25 C-63.754 318.827 -57.389 318.785 -52 315.25 C-49.699 312.758 -47.8 310.121 -46 307.25 C-43.133 307.823 -42.139 308.111 -40 310.25 C-37.875 309.875 -37.875 309.875 -36 309.25 C-35.624 303.115 -35.954 298.665 -39 293.25 C-42 292.25 -42 292.25 -44.758 292.895 C-48.921 293.351 -51.373 291.932 -54.875 289.938 C-71.73 281.017 -91.271 281.96 -107 293.25 Z M35 287.25 C35 289.23 35 291.21 35 293.25 C33.25 293.938 33.25 293.938 31 294.25 C29.662 293.257 28.328 292.256 27 291.25 C24.25 291.062 24.25 291.062 22 291.25 C26.198 312.238 26.198 312.238 33 317.25 C33.66 317.25 34.32 317.25 35 317.25 C35.66 315.6 36.32 313.95 37 312.25 C38.32 312.25 39.64 312.25 41 312.25 C41.196 312.793 41.392 313.335 41.594 313.895 C41.893 314.61 42.192 315.325 42.5 316.062 C42.778 316.77 43.057 317.478 43.344 318.207 C46.412 321.991 50.872 322.976 55.525 323.575 C58.186 323.764 60.834 323.87 63.5 323.938 C64.418 323.972 65.336 324.006 66.281 324.041 C68.521 324.123 70.76 324.192 73 324.25 C73.284 325.048 73.567 325.846 73.859 326.668 C75 329.25 75 329.25 77.25 330.562 C80.266 331.316 82.903 331.394 86 331.25 C86.334 324.527 86.641 318.151 83 312.25 C81.213 310.384 79.341 308.652 77.438 306.906 C75.31 304.455 75.796 302.383 76 299.25 C72.319 292.557 64.174 288.791 57.188 286.375 C50.255 284.518 41.361 283.393 35 287.25 Z M-28 303.25 C-28 305.56 -28 307.87 -28 310.25 C-25.03 309.26 -22.06 308.27 -19 307.25 C-20 305.25 -20 305.25 -22.375 304.125 C-25 303.25 -25 303.25 -28 303.25 Z M120 314.25 C119.67 317.88 119.34 321.51 119 325.25 C121 324.25 121 324.25 121.688 322.562 C122.084 319.625 121.591 317.138 121 314.25 C120.67 314.25 120.34 314.25 120 314.25 Z M108 264.25 C111.458 274.771 115.015 284.96 120.547 294.582 C126.3 305.144 128.822 314.248 128 326.25 C126.399 331.054 124.241 333.517 120 336.25 C94.899 348.087 60.127 334.803 35.656 326.469 C34.974 326.237 34.293 326.005 33.59 325.766 C30.302 324.643 27.025 323.496 23.758 322.312 C22.581 321.899 21.404 321.485 20.191 321.059 C19.162 320.685 18.133 320.312 17.073 319.927 C12.024 318.814 7.432 319.591 3 322.25 C3 322.91 3 323.57 3 324.25 C89.758 357.861 89.758 357.861 120.875 345.562 C127.793 342.058 133.583 337.267 136.371 329.879 C139.895 315.15 134.183 301.197 127.023 288.52 C121.727 279.962 115.855 271.633 109 264.25 C108.67 264.25 108.34 264.25 108 264.25 Z M-73 325.25 C-73.33 325.91 -73.66 326.57 -74 327.25 C-73.01 326.92 -72.02 326.59 -71 326.25 C-71.66 325.92 -72.32 325.59 -73 325.25 Z M-130.75 327.25 C-131.92 327.436 -133.091 327.621 -134.297 327.812 C-135.189 327.957 -136.081 328.101 -137 328.25 C-137 329.57 -137 330.89 -137 332.25 C-133.012 335.625 -128.69 335.95 -123.688 336.438 C-122.947 336.519 -122.206 336.601 -121.443 336.686 C-119.63 336.884 -117.815 337.069 -116 337.25 C-116 334.054 -116.547 332.833 -118 330.062 C-118.371 329.347 -118.743 328.632 -119.125 327.895 C-119.414 327.352 -119.703 326.809 -120 326.25 C-123.739 326.25 -127.066 326.661 -130.75 327.25 Z M-19.5 331.688 C-19.994 331.898 -19.994 331.898 -22.496 332.963 C-23.436 333.366 -24.376 333.769 -25.344 334.184 C-26.212 334.555 -27.08 334.927 -27.975 335.31 C-30 336.25 -30 336.25 -31 337.25 C-31.16 339.914 -31.259 342.556 -31.316 345.223 C-31.327 345.621 -31.327 345.621 -31.379 347.64 C-31.445 350.197 -31.504 352.755 -31.562 355.312 C-31.606 357.042 -31.649 358.772 -31.693 360.502 C-31.801 364.751 -31.902 369.001 -32 373.25 C-38.297 372.886 -43.279 371.715 -48.875 368.812 C-49.558 368.466 -50.242 368.119 -50.946 367.761 C-57.505 364.267 -65.595 359.061 -69 352.25 C-75.993 352.886 -82.662 354.177 -89.5 355.75 C-100.553 358.292 -110.717 359.406 -122.062 359.312 C-123.119 359.308 -124.175 359.303 -125.264 359.299 C-127.843 359.287 -130.421 359.271 -133 359.25 C-128.431 368.935 -123.719 377.837 -117 386.25 C-116.557 386.857 -116.113 387.464 -115.656 388.09 C-99.936 408.459 -70.684 420.028 -45.923 423.545 C-42.838 423.927 -39.756 424.278 -36.66 424.562 C-34 425.25 -34 425.25 -32.86 426.817 C-31.684 430.145 -31.643 433.37 -31.586 436.859 C-31.568 437.504 -31.551 438.149 -31.532 438.813 C-31.47 441.208 -31.423 443.604 -31.375 446 C-31.251 451.363 -31.127 456.725 -31 462.25 C-19.78 462.25 -8.56 462.25 3 462.25 C3.061 459.747 3.121 457.243 3.184 454.664 C3.245 452.245 3.309 449.826 3.372 447.406 C3.416 445.722 3.457 444.038 3.497 442.354 C3.555 439.937 3.619 437.519 3.684 435.102 C3.7 434.346 3.717 433.591 3.734 432.813 C3.886 427.478 3.886 427.478 5 425.25 C6.923 424.675 6.923 424.675 9.461 424.207 C10.398 424.024 11.335 423.842 12.301 423.653 C13.315 423.458 14.33 423.263 15.375 423.062 C48.084 416.312 76.182 400.201 94.896 371.975 C102 360.879 102 360.879 102 357.25 C100.762 357.164 99.525 357.077 98.25 356.988 C81.871 355.708 65.767 352.924 50 348.25 C47.438 347.688 47.438 347.688 45 348.25 C42.687 350.359 40.722 352.635 39 355.25 C39 355.91 39 356.57 39 357.25 C38.412 357.523 37.824 357.797 37.219 358.078 C35.065 359.216 33.382 360.464 31.5 362 C23.028 368.493 14.655 372.25 4 372.25 C4 359.05 4 345.85 4 332.25 C-8.594 327.002 -8.594 327.002 -19.5 331.688 Z M13 336.25 C12 337.25 12 337.25 11.886 339.658 C11.892 340.701 11.897 341.743 11.902 342.816 C11.906 343.941 11.909 345.066 11.912 346.225 C11.92 347.409 11.929 348.593 11.938 349.812 C11.942 351 11.947 352.188 11.951 353.412 C11.963 356.358 11.979 359.304 12 362.25 C16.909 361.046 20.425 359.648 24.562 356.625 C25.451 355.993 26.339 355.362 27.254 354.711 C30.735 351.591 33.322 348.062 36 344.25 C32.355 342.914 28.709 341.582 25.062 340.25 C24.022 339.868 22.981 339.487 21.908 339.094 C20.919 338.733 19.929 338.372 18.91 338 C17.994 337.665 17.077 337.33 16.133 336.984 C14 336.25 14 336.25 13 336.25 Z M-47.133 342.781 C-47.938 343.097 -48.744 343.413 -49.574 343.738 C-50.416 344.072 -51.258 344.406 -52.125 344.75 C-52.974 345.084 -53.824 345.418 -54.699 345.762 C-56.801 346.588 -58.901 347.418 -61 348.25 C-57.365 352.873 -54.017 356.278 -48.812 359.188 C-47.788 359.774 -46.763 360.361 -45.707 360.965 C-43 362.25 -43 362.25 -40 362.25 C-40.33 355.32 -40.66 348.39 -41 341.25 C-43.39 341.25 -44.909 341.904 -47.133 342.781 Z M-58 429.25 C-68.516 463.953 -62.022 499.805 -54.287 534.312 C-54.136 534.994 -53.985 535.677 -53.829 536.381 C-53.417 538.239 -52.998 540.096 -52.579 541.952 C-52.021 545.13 -51.891 548.032 -52 551.25 C-53.114 551.085 -54.227 550.92 -55.375 550.75 C-71.349 549.031 -86.676 549.173 -100 559.25 C-106.908 565.573 -106.908 565.573 -107.113 569.305 C-105.655 571.853 -103.866 572.679 -101.163 573.692 C-97.032 574.758 -92.932 574.734 -88.688 574.688 C-87.723 574.681 -86.758 574.674 -85.764 574.667 C-71.084 574.344 -56.03 570.848 -43.145 563.656 C-41 561.25 -41 561.25 -40.453 557.594 C-40.853 550.69 -42.644 543.912 -44.192 537.191 C-45.143 533.031 -46.047 528.861 -46.953 524.691 C-47.133 523.867 -47.312 523.043 -47.497 522.194 C-53.43 494.895 -56.368 466.192 -50.656 438.531 C-50 435.25 -50 435.25 -50 431.25 C-52.64 430.59 -55.28 429.93 -58 429.25 Z M22 431.25 C22.487 435.921 23.026 440.563 23.754 445.203 C29.181 480.201 23.251 514.621 13.473 548.442 C12.33 552.479 11.574 556.053 12 560.25 C19.825 569.416 36.348 572.765 48 574.25 C68.811 575.687 68.811 575.687 78 572.25 C80 570.25 80 570.25 80.062 568.062 C77.806 562.089 72.812 558.445 67.312 555.5 C57.268 550.998 47.676 549.811 36.75 550.062 C35.612 550.076 34.474 550.09 33.301 550.104 C30.533 550.138 27.767 550.187 25 550.25 C25.693 542.993 27.32 535.966 28.897 528.861 C36.176 495.782 39.235 463.654 32 430.25 C27.88 429.26 25.853 429.379 22 431.25 Z " fill="#20242A" transform="translate(183,17.75)"/>
<path d="M0 0 C10.865 10.058 16.436 25.878 17.109 40.473 C16.761 55.297 13.096 68.328 3.039 79.469 C0.205 81.859 -2.704 83.712 -5.961 85.469 C-6.992 86.088 -8.023 86.706 -9.086 87.344 C-17.42 90.58 -28.338 89.341 -36.402 85.914 C-47.077 79.884 -54.124 70.039 -58.398 58.719 C-62.752 43.051 -61.456 24.434 -53.773 10.156 C-47.993 0.867 -40.248 -4.867 -29.773 -7.906 C-19.283 -9.914 -8.293 -6.476 0 0 Z M-41.559 5.801 C-51.691 17.852 -54.813 30.4 -53.711 46.008 C-52.481 55.383 -49.522 62.822 -43.961 70.469 C-43.693 70.881 -43.693 70.881 -42.336 72.969 C-36.711 78.89 -29.597 82.459 -21.461 82.906 C-13.891 82.806 -7.116 79.437 -1.645 74.289 C0.016 72.403 1.57 70.506 3.039 68.469 C0.068 67.629 -2.696 67.326 -5.773 67.156 C-11.539 66.58 -15.649 65.242 -19.43 60.707 C-24.815 52.739 -25.379 45.822 -23.961 36.469 C-22.888 36.716 -21.816 36.964 -20.711 37.219 C-16.961 37.469 -16.961 37.469 -14.461 35.906 C-12.961 33.469 -12.961 33.469 -12.961 30.469 C-13.961 27.469 -13.961 27.469 -16.086 25.469 C-17.961 23.469 -17.961 23.469 -18.023 20.344 C-16.961 17.469 -16.961 17.469 -14.523 16.156 C-13.678 15.929 -12.832 15.702 -11.961 15.469 C-11.301 15.139 -10.641 14.809 -9.961 14.469 C-5.135 14.19 -1.462 14.712 3.039 16.469 C0.676 9.606 -4.488 4.582 -10.773 1.031 C-21.015 -3.429 -33.225 -2.05 -41.559 5.801 Z " fill="#20242A" transform="translate(148.9609375,119.53125)"/>
<path d="M0 0 C3.807 1.438 4.989 3.774 7.254 7.051 C9.431 9.861 11.746 11.31 14.812 13.062 C14.483 14.713 14.153 16.363 13.812 18.062 C12.74 17.898 11.667 17.733 10.562 17.562 C3.483 16.619 3.483 16.619 0.988 18.27 C0.373 18.799 -0.241 19.329 -0.875 19.875 C-8.369 25.748 -17.771 27.821 -27.195 26.707 C-34.4 25.456 -34.4 25.456 -37.188 24.062 C-37.188 22.412 -37.188 20.762 -37.188 19.062 C-35.944 19.109 -34.7 19.155 -33.418 19.203 C-21.137 19.524 -11.289 18.707 -1.188 11.062 C-1.517 10.341 -1.847 9.619 -2.188 8.875 C-3.2 6.029 -3.437 4.053 -3.188 1.062 C-2.188 0.062 -2.188 0.062 0 0 Z " fill="#20242A" transform="translate(189.1875,210.9375)"/>
</svg>
