<?xml version="1.0" encoding="UTF-8"?>
<!-- Generator: visioncortex VTracer 0.6.12 -->
<svg version="1.1" xmlns="http://www.w3.org/2000/svg" width="434" height="670">
<path d="M0 0 C1.04 -0.019 2.079 -0.038 3.15 -0.058 C4.278 -0.067 5.406 -0.075 6.568 -0.084 C7.74 -0.095 8.911 -0.107 10.118 -0.119 C12.61 -0.137 15.102 -0.151 17.593 -0.158 C21.342 -0.177 25.089 -0.239 28.838 -0.303 C44.027 -0.436 57.671 0.524 71.372 7.591 C73.765 10.281 73.462 12.638 73.521 16.178 C73.538 16.839 73.555 17.501 73.572 18.183 C73.62 20.292 73.641 22.4 73.662 24.51 C73.69 25.941 73.72 27.373 73.752 28.805 C73.826 32.31 73.875 35.816 73.912 39.322 C74.64 39.467 75.368 39.612 76.117 39.762 C108.836 46.353 143.199 54.681 168.912 77.322 C169.729 78.008 170.547 78.694 171.389 79.4 C189.915 95.346 203.268 117.529 205.134 142.258 C206.127 168.057 201.439 189.035 184.912 209.322 C184.248 210.15 183.584 210.977 182.9 211.83 C171.493 225.283 155.722 235.71 139.912 243.322 C143.117 245.978 146.324 248.222 149.912 250.322 C156.514 254.462 161.962 259.59 167.53 264.992 C168.636 266.056 169.766 267.094 170.904 268.123 C189.899 285.709 201.406 313.129 203.066 338.692 C203.265 344.258 203.19 349.818 203.1 355.385 C203.085 357.042 203.071 358.699 203.059 360.355 C203.026 364.345 202.975 368.333 202.912 372.322 C203.698 372.588 204.485 372.853 205.295 373.127 C208.454 374.57 209.294 376.137 210.502 379.346 C211.06 382.037 210.473 384.406 209.979 387.076 C209.865 390.93 211.45 394.195 212.904 397.709 C218.979 413.461 215.854 435.51 209.896 450.955 C207.817 455.427 205.208 459.739 201.1 462.572 C198.912 463.322 198.912 463.322 195.412 463.572 C191.912 464.322 191.912 464.322 189.787 467.197 C189.168 468.229 188.55 469.26 187.912 470.322 C184.19 473.513 180.77 473.818 176.029 473.701 C173.912 473.322 173.912 473.322 171.537 471.197 C168.912 469.322 168.912 469.322 166.342 469.572 C164.427 469.981 162.522 470.435 160.631 470.939 C157.392 471.396 155.793 470.797 152.912 469.322 C150.472 467.318 149.941 466.409 148.912 463.322 C148.499 457.624 149.612 453.424 151.6 448.197 C151.734 447.831 151.734 447.831 152.415 445.975 C153.234 443.752 154.07 441.537 154.912 439.322 C155.168 438.646 155.424 437.969 155.687 437.272 C157.073 433.613 158.481 429.964 159.912 426.322 C158.963 426.962 158.015 427.601 157.037 428.26 C152.511 430.83 148.087 431.527 142.912 431.322 C138.819 430.057 137.399 429.029 134.975 425.51 C133.733 421.784 133.745 420.057 134.912 416.322 C137.784 411.65 141.131 407.565 144.725 403.447 C145.257 402.832 145.79 402.217 146.339 401.584 C147.39 400.37 148.443 399.158 149.498 397.948 C150.673 396.597 151.84 395.24 153.006 393.881 C162.994 382.282 162.994 382.282 166.912 380.322 C167.588 378.58 167.588 378.58 168.225 376.447 C169.628 372.367 171.227 371.514 174.912 369.322 C175.057 366.236 175.057 366.236 174.912 363.322 C174.729 363.644 174.729 363.644 173.803 365.271 C169.146 373.045 163.616 379.373 157.324 385.85 C156.111 387.115 154.937 388.416 153.771 389.725 C137.691 407.229 112.522 418.27 89.912 424.322 C88.592 424.322 87.272 424.322 85.912 424.322 C85.928 425.378 85.944 426.434 85.96 427.521 C86.476 465.655 81.592 500.585 71.368 537.444 C70.912 539.322 70.912 539.322 70.912 541.322 C72.193 541.287 73.475 541.253 74.795 541.217 C93.352 540.862 111.793 542.921 125.912 556.322 C129.817 560.91 130.912 564.408 130.912 570.322 C128.782 575.138 125.967 577.416 121.262 579.446 C113.404 582.377 105.276 582.679 96.975 582.635 C95.883 582.63 94.791 582.625 93.666 582.62 C75.619 582.363 53.563 579.918 38.912 568.322 C35.497 564.582 34.485 561.885 34.582 556.834 C35.231 551.893 37.099 547.282 38.786 542.614 C52.023 505.746 56.385 468.219 57.912 429.322 C56.262 429.652 54.612 429.982 52.912 430.322 C52.928 431.342 52.944 432.361 52.96 433.412 C53.014 437.187 53.048 440.963 53.077 444.739 C53.092 446.374 53.112 448.01 53.138 449.645 C53.175 451.993 53.192 454.341 53.205 456.689 C53.221 457.423 53.236 458.156 53.252 458.912 C53.253 460.974 53.253 460.974 52.912 464.322 C46.871 468.35 39.159 467.482 32.123 467.49 C31.612 467.492 31.612 467.492 29.028 467.5 C26.878 467.505 24.728 467.508 22.578 467.508 C19.291 467.51 16.004 467.528 12.717 467.547 C10.623 467.55 8.529 467.552 6.436 467.553 C5.945 467.556 5.945 467.556 3.465 467.575 C-5.663 467.544 -5.663 467.544 -9.088 465.322 C-10.631 462.044 -10.217 458.224 -10.221 454.658 C-10.222 453.372 -10.223 452.085 -10.225 450.76 C-10.223 450.093 -10.22 449.427 -10.218 448.74 C-10.213 446.697 -10.218 444.654 -10.225 442.611 C-10.224 441.969 -10.224 441.969 -10.221 438.721 C-10.22 437.542 -10.218 436.363 -10.217 435.148 C-10.088 432.322 -10.088 432.322 -9.088 430.322 C-11.068 429.992 -13.048 429.662 -15.088 429.322 C-13.329 469.724 -8.95 508.47 4.502 546.936 C4.622 547.28 4.622 547.28 5.228 549.02 C5.855 550.786 6.507 552.543 7.162 554.299 C8.046 557.862 8.016 559.818 6.912 563.322 C-2.464 576.834 -21.304 579.1 -36.361 581.939 C-42.163 582.535 -47.947 582.548 -53.775 582.572 C-54.377 582.583 -54.377 582.583 -57.422 582.635 C-67.16 582.677 -78.51 582.392 -85.869 575.123 C-88.191 571.693 -88.557 568.383 -88.088 564.322 C-84.956 556.425 -78.6 551.329 -71.088 547.635 C-56.982 541.78 -43.228 540.578 -28.088 540.322 C-28.274 539.671 -28.46 539.019 -28.651 538.348 C-33.333 521.805 -37.275 505.287 -40.088 488.322 C-40.253 487.362 -40.418 486.402 -40.588 485.412 C-44.061 464.528 -43.386 443.417 -43.088 422.322 C-43.62 422.255 -43.62 422.255 -46.313 421.916 C-49.302 421.446 -51.694 420.916 -54.479 419.826 C-55.261 419.52 -56.043 419.214 -56.849 418.899 C-57.671 418.564 -58.492 418.229 -59.338 417.885 C-60.206 417.533 -61.074 417.181 -61.969 416.818 C-79.557 409.519 -95.944 400.433 -109.896 387.354 C-111.718 385.665 -113.566 384.154 -115.525 382.635 C-131.841 368.628 -142.107 346.313 -145.088 325.322 C-146.11 311.061 -146.212 296.814 -141.088 283.322 C-140.726 282.297 -140.363 281.273 -139.99 280.217 C-134.545 265.948 -125.489 253.172 -114.436 242.697 C-113.088 241.322 -113.088 241.322 -112.088 239.322 C-112.75 239.238 -113.413 239.155 -114.096 239.068 C-118.066 238.078 -121.372 236.316 -124.963 234.385 C-125.708 233.986 -126.453 233.587 -127.221 233.176 C-146.925 222.437 -170.007 207.665 -178.025 185.697 C-182.102 169.697 -177.924 155.503 -170.061 141.479 C-166.852 136.345 -163.1 131.842 -159.088 127.322 C-158.242 126.344 -157.397 125.365 -156.525 124.357 C-149.268 116.087 -141.221 107.846 -131.666 102.244 C-123.512 97.445 -123.512 97.445 -122.072 93.631 C-121.795 91.744 -121.578 89.848 -121.428 87.947 C-120.872 83.656 -118.94 81.514 -116.088 78.322 C-113.038 76.197 -111.995 76.322 -108.088 76.322 C-107.941 75.777 -107.794 75.232 -107.643 74.67 C-106.056 69.335 -103.876 65.296 -100.697 60.756 C-96.326 54.146 -93.259 46.942 -90.588 39.51 C-88.293 33.425 -85.927 28.563 -80.174 25.205 C-75.582 23.202 -71.992 22.96 -67.088 24.322 C-63.838 26.322 -63.838 26.322 -61.088 28.322 C-57.123 29.644 -55.714 28.597 -51.9 27.01 C-41.953 23.066 -31.45 19.79 -20.701 23.045 C-16.713 25.11 -15.612 27.294 -14.088 31.322 C-11.533 31.967 -11.533 31.967 -9.088 32.322 C-9.093 31.698 -9.098 31.073 -9.104 30.43 C-9.125 27.561 -9.138 24.691 -9.15 21.822 C-9.159 20.84 -9.167 19.858 -9.176 18.846 C-9.194 13.255 -9.19 7.816 -8.088 2.322 C-4.816 0.141 -3.8 0.057 0 0 Z M0.912 9.322 C-0.263 24.602 -0.263 24.602 -0.338 30.822 C-0.364 32.132 -0.389 33.442 -0.416 34.791 C-0.068 38.541 0.794 40.277 2.912 43.322 C4.018 47.152 3.911 49.748 2.85 53.51 C2.54 54.768 2.231 56.026 1.912 57.322 C2.572 58.312 3.232 59.302 3.912 60.322 C4.652 64.788 4.832 69.269 2.955 73.459 C-2.071 80.136 -10.03 81.568 -17.744 83.498 C-18.572 83.707 -19.4 83.917 -20.253 84.132 C-21.894 84.54 -23.538 84.934 -25.186 85.309 C-32.396 87.063 -38.831 90.13 -43.588 96.01 C-44.073 96.591 -44.557 97.173 -45.057 97.771 C-46.088 99.322 -46.088 99.322 -46.088 101.322 C-34.017 98.922 -20.911 94.758 -11.666 86.291 C-10.088 85.322 -10.088 85.322 -7.885 85.666 C-7.292 85.883 -6.699 86.099 -6.088 86.322 C-6.253 86.9 -6.418 87.477 -6.588 88.072 C-7.088 90.322 -7.088 90.322 -7.088 94.322 C-5.365 95.744 -5.365 95.744 -3.025 97.072 C6.968 103.369 12.815 112.747 15.951 124.076 C20.012 142.883 17.196 160.016 6.912 176.322 C0.761 184.776 -7.956 189.937 -18.088 192.322 C-29.723 193.713 -39.552 190.789 -49.025 184.006 C-58.89 175.954 -62.816 165.312 -66.088 153.322 C-73.82 151.847 -81.561 150.642 -89.361 149.596 C-90.488 149.443 -91.615 149.291 -92.776 149.133 C-95.137 148.815 -97.498 148.497 -99.86 148.181 C-103.474 147.696 -107.088 147.205 -110.701 146.713 C-113.005 146.403 -115.308 146.093 -117.611 145.783 C-118.688 145.636 -119.766 145.49 -120.875 145.338 C-121.881 145.205 -122.886 145.071 -123.921 144.933 C-124.801 144.815 -125.68 144.696 -126.587 144.575 C-129.137 144.317 -131.529 144.138 -134.088 144.322 C-140.732 150.306 -147.132 159.153 -148.525 168.146 C-148.857 175.75 -146.804 180.073 -142.041 185.771 C-127.962 201.096 -101.884 217.425 -81.088 220.322 C-77.26 219.303 -77.26 219.303 -73.838 217.51 C-69.271 215.17 -66.253 213.923 -61.088 214.322 C-60.758 215.642 -60.428 216.962 -60.088 218.322 C-65.109 221.61 -70.235 224.476 -75.598 227.165 C-85.322 232.051 -93.826 237.232 -102.088 244.322 C-102.964 245.038 -103.841 245.753 -104.744 246.49 C-121.92 261.042 -133.398 281.984 -136.088 304.322 C-137.671 329.142 -129.062 352.723 -112.869 371.453 C-87.759 399.134 -51.887 413.295 -15.806 419.675 C-14.747 419.863 -13.687 420.05 -12.596 420.244 C-11.654 420.405 -10.711 420.566 -9.741 420.731 C-7.009 421.34 -4.615 422.118 -2.088 423.322 C-0.616 426.266 -0.85 429.285 -0.771 432.518 C-0.751 433.225 -0.73 433.932 -0.709 434.661 C-0.643 436.923 -0.584 439.185 -0.525 441.447 C-0.482 442.98 -0.439 444.512 -0.395 446.045 C-0.287 449.804 -0.186 453.563 -0.088 457.322 C10.829 457.942 21.726 458.424 32.662 458.447 C33.572 458.452 34.483 458.456 35.421 458.461 C41.788 458.446 41.788 458.446 42.912 457.322 C43.034 454.994 43.092 452.662 43.123 450.33 C43.151 448.889 43.18 447.447 43.209 446.006 C43.25 443.726 43.287 441.446 43.313 439.166 C43.341 436.97 43.387 434.775 43.436 432.58 C43.455 431.262 43.475 429.943 43.496 428.584 C43.912 425.322 43.912 425.322 45.073 423.442 C47.617 421.893 49.865 421.577 52.811 421.146 C54.002 420.962 55.194 420.777 56.421 420.586 C57.697 420.396 58.973 420.206 60.287 420.01 C72.804 418.024 84.867 415.306 96.912 411.322 C97.626 411.089 98.34 410.856 99.076 410.616 C114.231 405.577 128.41 398.301 140.912 388.322 C141.41 387.937 141.41 387.937 143.932 385.986 C155.415 376.829 163.448 365.81 170.912 353.322 C171.5 352.407 172.088 351.492 172.693 350.549 C177.372 342.261 175.247 335.057 172.912 326.322 C167.294 324.109 161.656 323.51 155.705 322.814 C154.625 322.684 153.545 322.554 152.432 322.419 C150.153 322.146 147.872 321.875 145.592 321.608 C142.121 321.2 138.652 320.779 135.184 320.357 C132.962 320.092 130.74 319.828 128.518 319.564 C127.489 319.439 126.461 319.315 125.401 319.186 C119.525 318.505 113.828 318.201 107.912 318.322 C107.583 319.326 107.255 320.331 106.916 321.365 C100.025 341.532 87.904 354.826 68.912 364.322 C61.929 367.518 54.677 369.716 46.912 369.322 C43.912 367.322 43.912 367.322 43.233 365.48 C42.897 363.219 42.78 361.079 42.772 358.793 C42.766 357.89 42.76 356.987 42.754 356.056 C42.754 355.565 42.754 355.565 42.751 353.078 C42.746 352.037 42.741 350.996 42.736 349.923 C42.721 346.481 42.715 343.038 42.709 339.596 C42.703 337.207 42.697 334.819 42.692 332.43 C42.681 327.425 42.675 322.42 42.672 317.415 C42.666 310.987 42.642 304.56 42.614 298.132 C42.595 293.202 42.59 288.271 42.589 283.34 C42.586 280.969 42.577 278.598 42.564 276.227 C42.547 272.921 42.549 269.615 42.556 266.308 C42.546 265.321 42.537 264.334 42.528 263.317 C42.531 262.868 42.531 262.868 42.545 260.598 C42.543 259.816 42.542 259.034 42.54 258.228 C42.663 257.599 42.786 256.97 42.912 256.322 C45.92 254.317 47.714 253.77 51.189 253.025 C52.25 252.792 53.31 252.559 54.403 252.319 C55.54 252.073 56.678 251.826 57.85 251.572 C86.703 245.063 116.161 236.06 138.912 216.322 C139.732 215.647 140.552 214.971 141.396 214.275 C158.911 199.372 169.634 178.855 171.787 155.947 C172.775 131.605 165.104 108.858 148.543 90.832 C142.237 84.103 135.816 78.155 127.912 73.322 C127.367 72.981 126.821 72.64 126.259 72.289 C103.553 58.23 77.754 51.784 51.602 47.614 C50.736 47.471 49.87 47.329 48.979 47.182 C48.215 47.063 47.451 46.944 46.664 46.821 C46.086 46.657 45.508 46.492 44.912 46.322 C43.357 43.212 43.671 39.889 43.596 36.471 C43.577 35.785 43.558 35.099 43.539 34.392 C43.471 31.827 43.411 29.262 43.35 26.697 C43.277 23.83 43.277 23.83 42.912 9.322 C29.052 9.322 15.192 9.322 0.912 9.322 Z M51.912 10.322 C51.912 19.892 51.912 29.462 51.912 39.322 C56.202 39.652 60.492 39.982 64.912 40.322 C64.912 32.072 64.912 23.822 64.912 15.322 C55.912 11.322 55.912 11.322 51.912 10.322 Z M-79.463 35.385 C-81.309 38.721 -82.217 41.62 -83.088 45.322 C-81.334 44.246 -79.585 43.161 -77.838 42.072 C-76.863 41.469 -75.889 40.866 -74.885 40.244 C-72.291 38.462 -70.224 36.621 -68.088 34.322 C-69.088 33.322 -69.088 33.322 -72.9 32.947 C-76.216 33.001 -76.843 33.11 -79.463 35.385 Z M-78.277 52.107 C-91.619 62.886 -101.046 72.435 -103.088 90.322 C-103.748 90.487 -103.748 90.487 -107.088 91.322 C-107.418 89.342 -107.748 87.362 -108.088 85.322 C-110.581 87.036 -111.91 88.459 -112.529 91.463 C-112.904 99.156 -110.464 105.451 -105.408 111.248 C-101.866 114.546 -99.059 116.08 -94.088 116.322 C-94.088 113.322 -94.088 113.322 -96.088 110.322 C-96.213 107.635 -96.213 107.635 -96.088 105.322 C-90.088 107.322 -90.088 107.322 -87.213 108.447 C-79.018 110.742 -72.658 108.713 -65.088 105.322 C-61.713 103.322 -61.713 103.322 -59.088 101.322 C-58.302 100.734 -57.515 100.147 -56.705 99.541 C-53.92 97.18 -51.832 94.698 -49.588 91.822 C-41.106 80.951 -30.194 77.384 -17.052 74.842 C-12.315 73.864 -8.951 72.395 -5.088 69.322 C-3.713 66.572 -3.713 66.572 -3.088 64.322 C-5.145 61.9 -6.384 60.475 -9.541 59.791 C-22.497 59.936 -34.43 63.821 -46.393 68.467 C-49.088 69.322 -49.088 69.322 -51.088 68.322 C-51.088 66.672 -51.088 65.022 -51.088 63.322 C-50.357 63.041 -49.626 62.76 -48.873 62.471 C-46.326 61.421 -43.956 60.239 -41.525 58.947 C-32.036 54.153 -22.388 51.141 -11.713 51.26 C-11.183 51.264 -11.183 51.264 -8.502 51.287 C-8.104 51.293 -8.104 51.293 -6.088 51.322 C-5.428 50.002 -4.768 48.682 -4.088 47.322 C-7.713 42.447 -7.713 42.447 -11.088 41.322 C-25.953 41.024 -40.369 45.457 -53.486 52.186 C-56.088 53.322 -56.088 53.322 -60.088 53.322 C-59.756 50.477 -59.54 48.789 -57.514 46.697 C-46.706 39.665 -34.622 36.665 -22.088 34.322 C-22.253 33.827 -22.253 33.827 -23.088 31.322 C-42.164 27.858 -63.895 40.683 -78.277 52.107 Z M135.912 67.322 C139.139 70.648 142.443 73.606 146.1 76.447 C164.667 91.571 176.445 112.611 179.912 136.322 C180.796 151.283 181.005 166.096 175.912 180.322 C175.731 180.851 175.731 180.851 174.814 183.525 C163.154 214.357 136.086 232.226 107.487 245.205 C104.005 246.716 100.485 248.044 96.912 249.322 C102.005 251.025 105.884 248.931 110.725 247.135 C111.689 246.78 112.654 246.424 113.648 246.059 C144.497 234.29 176.168 214.856 190.518 183.854 C199.082 162.354 198.731 139.656 189.912 118.322 C185.787 109.27 180.573 101.687 173.912 94.322 C173.152 93.479 172.391 92.636 171.607 91.768 C162.093 81.754 150.227 73.562 137.912 67.322 C137.252 67.322 136.592 67.322 135.912 67.322 Z M-20.775 101.072 C-27.19 104.118 -33.452 105.884 -40.361 107.463 C-41.591 107.746 -42.821 108.03 -44.088 108.322 C-45.333 108.594 -46.578 108.866 -47.861 109.146 C-53.265 111.116 -54.721 115.343 -57.088 120.322 C-58.441 123.291 -59.347 126.147 -60.088 129.322 C-60.382 130.346 -60.676 131.369 -60.979 132.424 C-61.729 136.148 -61.972 138.614 -61.088 142.322 C-57.021 146.752 -52.379 149.546 -47.088 152.322 C-46.18 152.819 -45.273 153.315 -44.338 153.826 C-34.562 158.21 -21.692 157.8 -11.588 154.697 C-6.037 152.517 -0.988 149.71 3.912 146.322 C4.265 146.079 4.265 146.079 6.053 144.85 C9.17 142.473 10.691 140.938 12.037 137.197 C11.596 123.517 6.084 112.904 -3.49 103.451 C-9.86 98.231 -13.535 97.402 -20.775 101.072 Z M-144.963 125.76 C-157.658 138.567 -168.935 153.799 -170.4 172.26 C-170.099 181.204 -166.399 188.323 -161.088 195.322 C-160.468 196.146 -159.848 196.97 -159.209 197.818 C-155.408 202.306 -150.688 205.69 -146.088 209.322 C-145.26 210.024 -144.433 210.725 -143.58 211.447 C-136.681 217.049 -129.178 221.179 -121.338 225.322 C-120.26 225.899 -119.182 226.475 -118.072 227.069 C-112.358 230.017 -107.584 232.359 -101.088 232.322 C-98.775 231.396 -98.775 231.396 -97.088 230.01 C-96.51 229.56 -95.933 229.11 -95.338 228.646 C-94.088 227.322 -94.088 227.322 -94.088 225.322 C-94.599 225.107 -95.111 224.892 -95.638 224.671 C-112.544 217.494 -130.856 209.174 -143.717 195.604 C-145.088 194.322 -145.088 194.322 -147.088 194.322 C-147.356 193.745 -147.624 193.167 -147.9 192.572 C-149.11 190.28 -150.524 188.386 -152.088 186.322 C-156.844 179.182 -157.887 171.691 -156.213 163.322 C-152.598 151.251 -143.67 142.159 -135.088 133.322 C-134.619 132.833 -134.15 132.344 -133.667 131.84 C-127.851 125.78 -121.897 120.249 -115.088 115.322 C-116.197 111.836 -117.351 108.547 -119.088 105.322 C-126.99 105.322 -139.468 120.341 -144.963 125.76 Z M-60.088 111.322 C-60.636 111.66 -61.184 111.998 -61.748 112.346 C-68.331 116.049 -74.247 117.08 -81.67 117.572 C-85.859 118.491 -87.317 120.138 -90.088 123.322 C-93.269 124.913 -96.624 124.747 -100.088 124.322 C-101.372 123.66 -102.643 122.972 -103.9 122.26 C-105.877 121.412 -105.877 121.412 -108.088 121.322 C-114.251 124.942 -119.09 130.279 -124.088 135.322 C-117.366 136.732 -110.645 137.903 -103.846 138.865 C-103.38 138.932 -103.38 138.932 -101.025 139.267 C-99.078 139.544 -97.13 139.818 -95.182 140.092 C-92.199 140.512 -89.218 140.943 -86.236 141.375 C-84.335 141.643 -82.434 141.911 -80.533 142.178 C-79.645 142.308 -78.756 142.438 -77.841 142.572 C-77.012 142.686 -76.184 142.8 -75.331 142.917 C-74.606 143.02 -73.881 143.122 -73.134 143.228 C-70.921 143.33 -69.199 142.961 -67.088 142.322 C-67.002 141.306 -66.915 140.291 -66.826 139.244 C-66.026 131.06 -64.698 124.193 -61.111 116.678 C-60.088 114.322 -60.088 114.322 -60.088 111.322 Z M6.037 154.01 C-2.607 161.644 -15.074 164.725 -26.4 164.635 C-27.142 164.63 -27.883 164.625 -28.647 164.62 C-39.968 164.38 -49.703 160.579 -59.088 154.322 C-56.375 165.505 -51.648 174.591 -42.088 181.322 C-34.57 185.806 -27.842 187.148 -19.088 186.322 C-8.886 183.701 -1.463 177.882 4.303 169.193 C7.179 164.062 10.912 157.327 10.912 151.322 C8.912 151.322 8.912 151.322 6.037 154.01 Z M111.537 252.76 C108.883 253.73 106.222 254.677 103.561 255.627 C102.907 255.864 102.253 256.101 101.58 256.345 C94.321 258.953 86.931 260.748 79.428 262.482 C75.912 263.322 75.912 263.322 73.912 264.322 C73.912 292.702 73.912 321.082 73.912 350.322 C84.874 345.937 91.087 336.98 95.662 326.322 C97.492 321.684 98.982 317.01 100.236 312.186 C100.912 310.322 100.912 310.322 102.912 309.322 C116.734 309.395 130.656 311.735 144.35 313.385 C146.738 313.67 149.127 313.954 151.516 314.238 C157.315 314.929 163.114 315.624 168.912 316.322 C165.696 306.433 160.547 298.275 153.912 290.322 C153.148 289.357 152.383 288.391 151.596 287.396 C148.885 284.158 145.857 281.543 142.537 278.947 C141.94 278.472 141.343 277.998 140.728 277.509 C135.73 273.663 130.444 270.737 124.624 268.311 C122.799 267.467 122.799 267.467 119.912 265.322 C119.035 262.533 118.977 260.29 118.912 257.322 C141.287 264.138 160.001 280.808 171.217 301.119 C183.075 323.374 184.11 345.59 183.912 370.322 C187.212 370.652 190.512 370.982 193.912 371.322 C194.538 337.656 192.209 305.823 168.912 279.322 C168.6 278.944 168.6 278.944 167.018 277.029 C158.446 266.886 147.534 258.707 135.912 252.322 C135.201 251.891 134.49 251.46 133.758 251.016 C125.684 246.835 119.551 249.659 111.537 252.76 Z M51.912 262.322 C51.912 294.662 51.912 327.002 51.912 360.322 C62.912 357.322 62.912 357.322 65.912 355.322 C66.28 352.51 66.28 352.51 66.269 348.867 C66.271 348.203 66.273 347.539 66.275 346.855 C66.278 344.643 66.259 342.432 66.24 340.221 C66.237 338.667 66.235 337.113 66.235 335.559 C66.23 332.282 66.215 329.005 66.193 325.728 C66.166 321.602 66.154 317.476 66.15 313.35 C66.127 295.319 65.873 277.332 64.912 259.322 C60.465 259.322 56.227 261.244 51.912 262.322 Z M174.912 378.322 C174.912 379.312 174.912 380.302 174.912 381.322 C175.572 381.652 176.232 381.982 176.912 382.322 C176.912 383.312 176.912 384.302 176.912 385.322 C175.757 385.817 174.602 386.312 173.412 386.822 C168.262 389.402 164.749 393.096 160.912 397.322 C160.349 397.929 159.785 398.537 159.205 399.162 C155.453 403.318 151.949 407.684 148.475 412.072 C148.25 412.35 148.25 412.35 147.112 413.755 C144.592 416.987 143.912 418.073 143.912 422.322 C147.372 423.476 148.696 422.964 151.936 421.482 C156.472 418.82 160.212 415.023 163.912 411.322 C166.537 411.697 166.537 411.697 168.912 412.322 C169.641 421.413 167.586 428.688 164.537 437.197 C164.125 438.394 163.712 439.59 163.287 440.822 C160.34 449.322 160.34 449.322 158.785 452.959 C157.614 456.13 157.781 458.974 157.912 462.322 C158.572 462.652 159.232 462.982 159.912 463.322 C165.228 461.423 167.482 458.656 169.912 453.76 C170.246 453.114 170.58 452.468 170.924 451.802 C174.259 445.095 176.569 438.068 178.783 430.928 C179.912 427.322 179.912 427.322 180.912 425.322 C181.572 425.322 182.232 425.322 182.912 425.322 C184.003 430.715 183.659 434.818 182.162 440.135 C181.977 440.833 181.793 441.532 181.603 442.251 C180.551 446.182 179.387 450.067 178.162 453.947 C177.051 457.504 176.615 460.564 176.912 464.322 C180.912 464.322 180.912 464.322 182.85 462.51 C188.251 454.162 190.898 445.366 193.213 435.785 C193.406 434.993 193.6 434.201 193.799 433.385 C193.966 432.674 194.133 431.964 194.305 431.232 C194.912 429.322 194.912 429.322 196.912 426.322 C197.902 425.992 198.892 425.662 199.912 425.322 C200.3 435.569 199.493 444.354 196.912 454.322 C205.232 446.641 206.506 433.07 207.236 422.295 C207.578 410.315 206.071 398.252 198.912 388.322 C198.218 387.003 197.537 385.676 196.912 384.322 C198.562 383.992 200.212 383.662 201.912 383.322 C201.912 382.662 201.912 382.002 201.912 381.322 C192.76 378.768 184.401 377.938 174.912 378.322 Z M152.912 402.322 C153.242 402.982 153.572 403.642 153.912 404.322 C154.242 403.662 154.572 403.002 154.912 402.322 C154.252 402.322 153.592 402.322 152.912 402.322 Z M-34.088 425.322 C-34.729 468.39 -34.729 468.39 -31.088 488.322 C-30.895 489.399 -30.701 490.476 -30.502 491.586 C-26.787 511.775 -21.522 531.542 -16.088 551.322 C-22.79 550.39 -22.79 550.39 -25.471 549.779 C-41.924 546.906 -59.197 549.965 -73.088 559.322 C-76.075 561.696 -77.854 563.621 -79.088 567.322 C-75.756 571.488 -72.177 572.512 -67.088 573.322 C-62.938 573.625 -58.81 573.655 -54.65 573.635 C-53.5 573.631 -52.349 573.626 -51.163 573.622 C-35.634 573.418 -13.702 571.936 -2.088 560.322 C-2.517 554.711 -3.777 549.852 -5.713 544.572 C-10.07 532.068 -13.108 519.212 -16.088 506.322 C-16.302 505.395 -16.517 504.469 -16.737 503.514 C-22.282 478.86 -23.721 453.523 -23.088 428.322 C-24.545 427.819 -26.004 427.319 -27.463 426.822 C-28.275 426.544 -29.087 426.265 -29.924 425.979 C-32.088 425.322 -32.088 425.322 -34.088 425.322 Z M65.912 429.322 C65.923 430 65.933 430.678 65.944 431.376 C66.469 470.822 60.377 509.352 47.133 546.615 C43.901 555.787 43.901 555.787 43.912 560.322 C52.719 570.028 71.485 572.282 83.912 573.322 C87.892 573.482 91.867 573.507 95.85 573.51 C96.883 573.522 97.916 573.534 98.98 573.547 C115.417 573.578 115.417 573.578 120.912 568.322 C120.834 565.683 120.376 563.881 118.674 561.83 C106.875 550.961 90.667 548.705 75.26 549.084 C69.722 549.321 64.324 550.134 58.912 551.322 C59.518 546.494 60.461 541.941 61.768 537.256 C62.144 535.884 62.521 534.512 62.896 533.14 C63.093 532.426 63.289 531.713 63.492 530.977 C66.826 518.812 69.872 506.629 72.35 494.26 C72.584 493.105 72.818 491.95 73.059 490.76 C76.078 475.195 77.208 460.091 77.037 444.26 C77.027 442.603 77.018 440.946 77.01 439.289 C76.988 435.3 76.954 431.311 76.912 427.322 C72.693 427.126 69.742 427.52 65.912 429.322 Z " fill="#20242A" transform="translate(199.087890625,66.677734375)"/>
<path d="M0 0 C5.114 0.205 7.694 1.438 11.66 4.531 C23.023 11.664 36.835 14.053 49.961 14.754 C53 15 53 15 56 16 C54.63 19.161 54.011 19.993 51 22 C51.398 22.739 51.797 23.477 52.207 24.238 C60.379 39.886 62.901 56.378 58.375 73.688 C54.047 86.489 46.259 97.038 34.492 103.809 C25.309 108.199 13.95 108.614 4.039 106.312 C1.833 105.384 -0.025 104.349 -2 103 C-2.334 102.788 -2.334 102.788 -4.023 101.715 C-15.346 93.928 -22.477 82.942 -25.496 69.605 C-27.971 51.897 -25.369 36.296 -16 21 C-11.967 16.076 -7.671 11.964 -2 9 C-1.01 9 -0.02 9 1 9 C0.34 8.01 -0.32 7.02 -1 6 C-1.188 3.375 -1.188 3.375 -1 1 C-0.67 0.67 -0.34 0.34 0 0 Z M-6.227 19.98 C-15.004 29.283 -18.96 39.816 -20.375 52.312 C-19.754 56.765 -16.976 59.257 -13.484 61.914 C-0.451 70.069 11.667 73.279 27.062 69.938 C33.927 67.985 39.965 64.762 46 61 C46.869 60.464 47.738 59.928 48.633 59.375 C51.775 57.098 53.735 55.483 54.434 51.57 C54.016 42.281 50.17 31.95 44.62 24.477 C41.441 21.579 37.442 21.364 33.312 20.812 C31.514 20.515 29.718 20.21 27.922 19.898 C27.068 19.752 26.214 19.606 25.334 19.456 C18.946 18.208 13.474 15.421 8 12 C2.834 12 -2.532 16.694 -6.227 19.98 Z M46 70 C31.32 78.948 16.088 80.825 -0.445 77.062 C-6.004 75.401 -10.955 72.827 -16 70 C-16.66 69.67 -17.32 69.34 -18 69 C-16.623 79.684 -10.388 88.442 -2 95 C6.815 100.317 15.401 102.214 25.457 99.844 C35.1 96.644 42.639 90.08 47.535 81.223 C49.864 76.273 51.702 71.312 53 66 C49.891 66 48.377 68.081 46 70 Z " fill="#20242A" transform="translate(249,153)"/>
<path d="M0 0 C3.625 4.212 5.395 8.424 5 14 C3.289 21.171 -0.054 26.637 -6 31 C-22.477 40.98 -42.257 43.416 -61.055 39.754 C-71.309 37.129 -80.388 33.72 -86.438 24.688 C-88.549 20.555 -88.81 16.537 -88 12 C-86.247 8.359 -84.684 6.5 -81.438 4.125 C-75.762 2.267 -69.988 2.479 -64.133 3.5 C-52.19 5.406 -41.186 3.844 -29.863 -0.09 C-19.908 -3.464 -9.474 -5.684 0 0 Z M-42.562 28.188 C-45 31 -45 31 -45 33 C-32.095 33.966 -19.421 30.816 -9 23 C-7.234 21.441 -7.234 21.441 -6 20 C-6 19.34 -6 18.68 -6 18 C-19.619 15.996 -32.371 18.447 -42.562 28.188 Z " fill="#20242A" transform="translate(264,268)"/>
<path d="M0 0 C1.83 1.83 1.173 4.744 1.205 7.203 C1.215 7.852 1.225 8.501 1.235 9.17 C1.267 11.34 1.292 13.51 1.316 15.68 C1.337 17.205 1.358 18.731 1.379 20.257 C1.423 23.48 1.464 26.703 1.503 29.927 C1.551 33.973 1.605 38.019 1.661 42.065 C1.778 50.592 1.877 59.118 1.957 67.645 C1.984 70.49 2.015 73.334 2.05 76.179 C2.095 79.955 2.126 83.731 2.152 87.508 C2.167 88.611 2.183 89.714 2.198 90.85 C2.202 91.86 2.206 92.87 2.211 93.911 C2.218 94.779 2.226 95.648 2.234 96.543 C1.941 99.617 1.248 102.752 -1 105 C-15.694 105.44 -30.666 96.913 -41.375 87.5 C-51.903 77.511 -58.743 67.071 -59.312 52.188 C-58.946 39.033 -53.957 28.409 -44.438 19.375 C-33.378 10.036 -15.215 -3.381 0 0 Z M-38.309 27.227 C-46.264 35.722 -49.393 43.727 -49.273 55.359 C-48.602 64.305 -44.286 71.724 -38 78 C-30.323 84.579 -18.407 94 -8 94 C-8 66.28 -8 38.56 -8 10 C-18.081 10 -31.625 20.781 -38.309 27.227 Z " fill="#20242A" transform="translate(197,332)"/>
</svg>
