<?xml version="1.0" encoding="UTF-8"?>
<!-- Generator: visioncortex VTracer 0.6.12 -->
<svg version="1.1" xmlns="http://www.w3.org/2000/svg" width="418" height="619">
<path d="M0 0 C0.954 -0.009 1.909 -0.019 2.892 -0.029 C3.92 -0.023 4.948 -0.017 6.008 -0.01 C6.536 -0.012 6.536 -0.012 9.209 -0.019 C11.442 -0.021 13.676 -0.015 15.909 -0.003 C19.338 0.013 22.765 -0.003 26.193 -0.022 C28.36 -0.02 30.528 -0.016 32.695 -0.01 C33.21 -0.013 33.21 -0.013 35.817 -0.029 C36.292 -0.024 36.292 -0.024 38.699 0 C39.538 0.002 40.378 0.005 41.242 0.007 C41.916 0.133 42.59 0.259 43.285 0.388 C45.789 4.145 45.634 7.198 45.699 11.556 C45.709 11.954 45.709 11.954 45.758 13.965 C45.817 16.502 45.864 19.039 45.91 21.576 C45.948 23.296 45.987 25.017 46.027 26.738 C46.123 30.954 46.207 35.171 46.285 39.388 C47.33 39.568 48.376 39.749 49.453 39.935 C57.086 41.285 64.47 42.697 71.722 45.513 C72.508 45.812 73.293 46.11 74.102 46.418 C103.086 57.788 126.592 77.714 139.168 106.49 C140.56 110.101 141.541 113.592 142.285 117.388 C142.842 117.379 143.399 117.37 143.972 117.361 C149.986 117.594 153.237 119.184 157.511 123.4 C163.009 129.563 165.51 136.285 168.055 144.046 C170.408 151.158 173.534 157.48 177.722 163.701 C184.7 174.489 187.412 183.589 187.715 196.238 C187.901 200.643 188.38 203.076 191.285 206.388 C191.558 210.071 191.478 212.82 190.285 216.326 C190.285 219.388 190.285 219.388 191.683 221.154 C193.073 222.505 194.486 223.834 195.914 225.146 C200.169 229.169 203.69 233.778 207.285 238.388 C207.728 238.955 208.17 239.521 208.627 240.104 C213.904 246.908 218.769 253.793 222.847 261.388 C223.17 261.987 223.492 262.585 223.824 263.202 C228.27 271.822 230.462 282.152 227.597 291.673 C224.554 297.444 219.419 301.402 213.285 303.388 C189.868 305.814 168.442 293.767 148.285 283.388 C148.495 284.057 148.705 284.726 148.921 285.416 C157.567 313.618 152.854 343.876 139.406 369.759 C130.243 385.951 116.326 401.829 100.285 411.388 C99.733 411.73 99.181 412.072 98.613 412.424 C90.787 417.253 82.851 421.193 74.222 424.388 C73.437 424.679 72.652 424.97 71.844 425.269 C67.314 426.871 63.064 427.88 58.285 428.388 C58.595 428.942 58.905 429.497 59.224 430.068 C76.332 460.8 91.842 492.53 103.472 525.763 C103.86 526.87 104.247 527.976 104.646 529.116 C107.285 536.876 107.285 536.876 107.285 541.388 C108.217 540.797 109.149 540.205 110.109 539.595 C125.794 529.809 141.497 523.6 160.293 526.919 C163.487 527.889 165.762 528.961 168.347 531.076 C169.789 534.632 170.084 537.679 169.285 541.388 C161.8 556.835 145.645 565.426 130.285 571.388 C106.751 579.498 106.751 579.498 96.41 576.576 C93.087 574.719 91.598 573.326 90.369 569.646 C90.241 569.094 90.241 569.094 89.594 566.298 C89.294 565.053 88.995 563.808 88.686 562.525 C88.53 561.862 88.374 561.198 88.213 560.515 C80.654 528.692 67.613 499.618 52.88 470.562 C52.311 469.439 51.742 468.315 51.156 467.158 C50.65 466.164 50.144 465.169 49.623 464.145 C48.385 461.595 47.3 459.034 46.285 456.388 C46.152 457.315 46.019 458.242 45.883 459.197 C45.706 460.394 45.529 461.592 45.347 462.826 C45.173 464.021 44.999 465.216 44.82 466.447 C44.285 469.388 44.285 469.388 43.285 470.388 C41.901 470.521 40.51 470.587 39.12 470.625 C38.235 470.652 37.35 470.678 36.439 470.705 C35.957 470.717 35.957 470.717 33.519 470.775 C33.027 470.788 33.027 470.788 30.533 470.852 C28.441 470.904 26.35 470.954 24.258 471.001 C21.062 471.075 17.867 471.166 14.672 471.257 C12.642 471.306 10.612 471.353 8.582 471.4 C8.104 471.414 8.104 471.414 5.687 471.488 C-2.856 471.649 -2.856 471.649 -6.715 469.388 C-8.302 466.215 -7.836 462.8 -7.813 459.318 C-7.812 458.92 -7.812 458.92 -7.808 456.905 C-7.803 454.358 -7.79 451.81 -7.778 449.263 C-7.773 447.538 -7.768 445.813 -7.764 444.087 C-7.753 439.854 -7.736 435.621 -7.715 431.388 C-9.365 431.718 -11.015 432.048 -12.715 432.388 C-12.801 433.684 -12.888 434.979 -12.977 436.314 C-15.005 463.26 -22.289 489.102 -43.215 507.513 C-50.253 513.096 -57.933 517.644 -65.668 522.186 C-68.405 523.794 -71.122 525.435 -73.84 527.076 C-75.131 527.847 -76.423 528.619 -77.715 529.388 C-75.76 535.968 -73.588 542.667 -69.715 548.388 C-66.903 549.826 -66.903 549.826 -63.715 550.388 C-55.423 552.927 -48.99 556.564 -44.598 564.271 C-43.057 567.966 -43.127 570.404 -43.715 574.388 C-46.003 578.679 -48.772 580.158 -53.285 581.771 C-57.983 582.964 -62.708 582.818 -67.528 582.763 C-68.544 582.775 -69.56 582.786 -70.608 582.798 C-82.648 582.752 -91.557 580.148 -100.328 571.865 C-111.452 560.08 -115.856 542.18 -115.715 526.388 C-115.362 522.049 -114.006 519.37 -110.715 516.513 C-106.386 513.447 -106.386 513.447 -103.203 513.169 C-92.932 512.26 -86.01 508.078 -77.715 502.388 C-76.723 501.71 -75.73 501.032 -74.707 500.333 C-71.994 498.409 -69.349 496.419 -66.715 494.388 C-65.766 493.679 -64.818 492.97 -63.84 492.24 C-49.499 481.134 -41.465 464.989 -38.965 447.076 C-38.375 439.886 -38.641 432.595 -38.715 425.388 C-39.182 425.199 -39.182 425.199 -41.547 424.244 C-72.481 411.42 -96.646 391.213 -110.028 360.013 C-114.539 349.068 -119.867 335.365 -118.715 323.388 C-117.2 320.786 -116.328 319.592 -113.435 318.628 C-112.995 318.568 -112.995 318.568 -110.772 318.26 C-110.281 318.186 -110.281 318.186 -107.796 317.814 C-106.78 317.673 -105.763 317.533 -104.715 317.388 C-102.785 317.072 -100.856 316.751 -98.927 316.427 C-93.483 315.548 -88.037 314.682 -82.59 313.819 C-80.253 313.448 -77.916 313.074 -75.579 312.696 C-72.175 312.147 -68.77 311.606 -65.364 311.068 C-64.846 310.984 -64.846 310.984 -62.228 310.557 C-56.319 309.634 -50.698 309.035 -44.715 309.388 C-42.255 311.848 -42.099 313.917 -41.474 317.253 C-38.469 333.294 -32.345 345.781 -18.735 355.521 C-15.128 357.875 -11.811 360.023 -7.715 361.388 C-7.715 332.348 -7.715 303.308 -7.715 273.388 C-9.695 274.048 -11.675 274.708 -13.715 275.388 C-17.364 275.583 -17.364 275.583 -21.09 275.513 C-22.335 275.495 -23.581 275.477 -24.864 275.458 C-25.805 275.435 -26.746 275.412 -27.715 275.388 C-28.045 276.378 -28.375 277.368 -28.715 278.388 C-31.679 280.395 -33.777 280.588 -37.278 280.138 C-38.042 280.051 -38.806 279.963 -39.594 279.873 C-41.715 279.388 -41.715 279.388 -44.715 277.388 C-49.065 277.917 -52.03 280.672 -55.403 283.263 C-77.7 299.93 -106.522 320.615 -135.715 318.388 C-143.034 316.956 -147.221 314.04 -151.465 307.826 C-154.899 301.13 -154.286 294.606 -152.153 287.576 C-144.052 265.031 -122.313 245.605 -103.715 231.388 C-102.479 230.4 -101.244 229.409 -100.012 228.416 C-98.726 227.385 -97.439 226.355 -96.153 225.326 C-95.544 224.835 -94.935 224.345 -94.308 223.839 C-89.944 220.388 -89.944 220.388 -87.715 220.388 C-88.356 219.419 -88.996 218.449 -89.656 217.451 C-106.756 191.142 -114.256 161.644 -108.123 130.322 C-102.059 102.38 -86.375 76.356 -62.09 60.625 C-45.068 49.901 -28.275 43.79 -8.715 39.388 C-8.701 38.313 -8.686 37.239 -8.671 36.131 C-8.613 32.144 -8.536 28.158 -8.453 24.172 C-8.419 22.447 -8.391 20.721 -8.369 18.995 C-8.335 16.515 -8.283 14.036 -8.227 11.556 C-8.22 10.784 -8.214 10.012 -8.207 9.217 C-8.06 3.866 -8.06 3.866 -6.483 1.685 C-4.192 0.004 -2.827 0.008 0 0 Z M1.285 9.388 C1.125 12.052 1.025 14.694 0.969 17.361 C0.958 17.76 0.958 17.76 0.906 19.778 C0.84 22.335 0.781 24.893 0.722 27.451 C0.679 29.181 0.636 30.91 0.592 32.64 C0.484 36.889 0.383 41.139 0.285 45.388 C-8.189 48.633 -8.189 48.633 -12.196 49.599 C-12.96 49.789 -13.725 49.979 -14.513 50.175 C-15.302 50.369 -16.09 50.563 -16.903 50.763 C-45.75 58.176 -70 72.968 -85.684 98.861 C-99.051 121.711 -104.385 150.633 -98.153 176.638 C-92.445 198.097 -79.929 218.811 -61.074 231.111 C-58.715 232.388 -58.715 232.388 -56.715 232.388 C-56.435 231.433 -56.156 230.478 -55.867 229.494 C-52.941 219.911 -49.253 211.716 -42.672 203.99 C-40.471 201.064 -39.259 198.308 -37.965 194.888 C-37.751 194.336 -37.751 194.336 -36.668 191.544 C-35.761 188.539 -35.22 186.483 -35.715 183.388 C-37.219 181.869 -37.219 181.869 -39.278 180.576 C-50.039 173.084 -55.29 162.52 -58.219 149.912 C-59.527 140.624 -59.551 130.599 -57.715 121.388 C-56.756 121.438 -55.797 121.489 -54.809 121.541 C-50.044 121.53 -45.753 120.315 -41.215 118.951 C-40.34 118.688 -39.465 118.425 -38.564 118.154 C-27.458 114.605 -18.447 108.58 -9.278 101.486 C-7.033 99.909 -5.467 99.316 -2.715 99.388 C1.797 100.636 3.878 102.833 6.347 106.638 C12.32 117.311 15.47 129.021 15.41 141.201 C15.414 141.97 15.418 142.739 15.422 143.531 C15.413 148.568 15.001 153.402 14.285 158.388 C14.851 158.717 15.417 159.046 16 159.384 C21.905 163.214 21.905 163.214 23.039 166.72 C23.268 168.972 23.357 171.128 23.285 173.388 C23.285 174.048 23.285 174.708 23.285 175.388 C24.021 175.402 24.757 175.417 25.515 175.431 C33.473 175.82 33.473 175.82 37.41 178.576 C39.984 182.437 40.676 184.915 39.945 189.537 C36.801 202.236 27.661 212.843 19.858 223.029 C19.267 223.81 18.675 224.591 18.066 225.396 C17.531 226.094 16.995 226.791 16.443 227.51 C15.285 229.388 15.285 229.388 15.285 232.388 C15.924 232.223 16.564 232.058 17.222 231.888 C25.307 230.568 34.026 230.816 41.027 235.572 C43.984 238.521 44.672 241.451 44.91 245.451 C44.691 248.834 44.295 250.37 42.597 253.388 C37.483 256.476 32.149 256.73 26.285 257.388 C18.465 258.406 12.084 260.304 5.285 264.388 C4.937 264.55 4.937 264.55 3.179 265.367 C0.032 268.725 0.741 272.616 0.787 277.044 C0.781 278.035 0.776 279.025 0.77 280.046 C0.761 282.198 0.76 284.351 0.768 286.504 C0.781 289.908 0.77 293.311 0.752 296.714 C0.726 302.71 0.72 308.706 0.722 314.703 C0.724 324.301 0.71 333.899 0.666 343.498 C0.656 346.857 0.665 350.215 0.675 353.574 C0.669 355.626 0.662 357.679 0.654 359.732 C0.662 360.67 0.669 361.608 0.677 362.575 C0.67 363.433 0.664 364.291 0.657 365.175 C0.657 365.921 0.658 366.666 0.658 367.434 C0.17 369.989 -0.599 370.898 -2.715 372.388 C-17.744 370.957 -30.219 359.135 -39.59 348.076 C-46.052 339.266 -49.01 328.81 -51.715 318.388 C-70.763 321.126 -89.745 324.162 -108.715 327.388 C-106.035 355.574 -91.514 380.193 -70.153 398.513 C-49.162 414.439 -25.427 420.715 0.285 424.388 C0.615 436.928 0.945 449.468 1.285 462.388 C12.505 462.388 23.725 462.388 35.285 462.388 C35.615 449.848 35.945 437.308 36.285 424.388 C41.895 423.398 47.505 422.408 53.285 421.388 C86.158 412.214 113.889 395.546 131.16 365.326 C144.686 340.692 147.788 312.133 140.472 285.013 C135.432 268.988 127.903 256.539 116.285 244.388 C115.746 243.786 115.207 243.184 114.652 242.564 C103.836 230.906 89.033 223.464 74.844 216.763 C72.285 215.388 72.285 215.388 71.347 213.326 C71.285 211.388 71.285 211.388 72.285 209.388 C78.527 208.625 83.068 211.264 88.472 214.013 C89.438 214.501 90.404 214.989 91.4 215.491 C103.809 221.968 114.718 230.395 125.285 239.513 C132.29 245.473 140.055 250.181 147.905 254.942 C150.117 256.286 152.315 257.651 154.511 259.021 C162.341 263.837 170.365 267.996 178.722 271.826 C179.622 272.239 180.521 272.652 181.448 273.078 C196.202 279.666 196.202 279.666 204.285 279.388 C200.758 267.596 192.537 257.516 184.756 248.168 C183.756 246.959 182.771 245.738 181.799 244.506 C173.355 233.845 173.355 233.845 168.258 232.72 C165.347 232.826 165.347 232.826 162.758 233.322 C160.285 233.388 160.285 233.388 157.863 231.439 C154.628 228.866 153.045 229.042 148.972 229.138 C138.597 228.683 130.637 223.454 121.828 218.408 C114.115 214.197 107.473 212.343 98.768 211.362 C94.294 210.843 90.891 210.336 87.285 207.388 C85.312 203.76 85.14 200.21 85.847 196.201 C88.018 191.953 90.46 189.188 94.871 187.255 C99.213 186.153 103.204 186.171 107.66 186.263 C108.491 186.272 109.323 186.281 110.179 186.291 C112.215 186.314 114.25 186.35 116.285 186.388 C112.773 179.913 108.546 174.134 104.15 168.236 C100.417 163.157 97.209 157.973 94.285 152.388 C93.625 152.388 92.965 152.388 92.285 152.388 C91.789 153.462 91.292 154.536 90.781 155.642 C85.32 167.196 80.57 174.696 68.601 180.283 C60.353 183.032 51.522 182.469 43.66 178.771 C30.826 171.298 25.133 161.469 21.285 147.388 C17.934 132.307 20.827 117.564 27.59 103.947 C29.558 100.975 31.216 99.218 34.285 97.388 C39.413 97.368 42.348 99.557 46.347 102.576 C58.305 111.235 71.812 116.366 86.472 118.201 C90.89 118.914 90.89 118.914 92.594 120.958 C93.41 122.826 93.41 122.826 94.285 126.388 C94.615 127.378 94.945 128.368 95.285 129.388 C98.915 129.058 102.545 128.728 106.285 128.388 C106.512 127.006 106.739 125.624 106.972 124.201 C108.03 119.609 109.221 117.069 113.285 114.388 C116.469 113.612 119.1 113.607 122.285 114.388 C125.015 116.05 127.101 118.072 129.285 120.388 C130.617 121.723 131.95 123.056 133.285 124.388 C131.933 109.328 124.723 97.816 115.285 86.388 C114.899 85.92 114.899 85.92 112.945 83.548 C95.437 63.316 72.239 53.497 46.389 48.68 C42.794 48 40.369 47.444 37.285 45.388 C36.947 42.629 36.796 40.083 36.773 37.318 C36.755 36.522 36.737 35.725 36.719 34.905 C36.665 32.358 36.631 29.811 36.597 27.263 C36.564 25.538 36.53 23.813 36.494 22.087 C36.409 17.854 36.342 13.622 36.285 9.388 C31.461 9.221 26.638 9.06 21.813 8.906 C20.171 8.853 18.529 8.797 16.887 8.74 C14.531 8.658 12.176 8.583 9.82 8.509 C9.082 8.482 8.343 8.455 7.582 8.427 C2.399 8.274 2.399 8.274 1.285 9.388 Z M35.285 103.388 C27.42 118.202 23.236 131.809 27.972 148.388 C29.785 153.55 32.005 158.015 35.285 162.388 C36.069 163.44 36.852 164.492 37.66 165.576 C43.707 172.055 49.688 175.38 58.66 175.763 C66.2 175.62 71.828 172.524 77.285 167.388 C77.986 166.073 78.659 164.741 79.285 163.388 C78.656 163.435 78.027 163.481 77.379 163.529 C71.05 163.796 66.511 163.09 61.285 159.388 C57.077 155.291 55.448 150.8 55.168 144.939 C55.161 142.751 55.196 140.574 55.285 138.388 C56.192 138.594 57.1 138.801 58.035 139.013 C61.401 139.402 62.605 139.373 65.285 137.388 C65.615 136.398 65.945 135.408 66.285 134.388 C64.51 131.39 62.75 128.853 60.285 126.388 C60.318 123.659 60.849 121.092 61.285 118.388 C60.39 117.976 59.496 117.563 58.574 117.138 C51.385 113.734 45.22 110.166 39.176 104.892 C37.285 103.388 37.285 103.388 35.285 103.388 Z M-9.84 109.388 C-20.549 117.665 -32.433 122.711 -45.387 126.38 C-48.051 127.187 -50.3 128.035 -52.715 129.388 C-53.323 144.436 -52.337 157.987 -42.715 170.388 C-39.899 173.3 -37.013 176.027 -33.715 178.388 C-33.055 178.388 -32.395 178.388 -31.715 178.388 C-30.619 176.863 -29.588 175.291 -28.59 173.701 C-25.285 168.796 -21.987 165.99 -16.715 163.388 C-17.064 162.71 -17.414 162.032 -17.774 161.333 C-20.901 154.938 -22.545 149.514 -22.715 142.388 C-21.808 142.636 -20.9 142.883 -19.965 143.138 C-16.715 143.388 -16.715 143.388 -14.278 141.763 C-12.715 139.388 -12.715 139.388 -12.653 136.951 C-13.715 134.388 -13.715 134.388 -16.34 131.826 C-18.715 129.388 -18.715 129.388 -18.903 127.388 C-16.538 123.405 -13.061 120.837 -8.715 119.388 C-3.175 119.08 0.402 119.947 5.285 122.388 C4.364 115.527 2.255 110.345 -2.715 105.388 C-5.87 105.388 -7.419 107.436 -9.84 109.388 Z M116.285 120.388 C113.775 122.166 113.307 123.272 112.722 126.326 C113.243 135.62 120.534 144.547 125.472 152.076 C125.995 152.879 126.518 153.681 127.057 154.509 C127.559 155.256 128.061 156.004 128.578 156.775 C129.027 157.447 129.476 158.12 129.938 158.813 C131.285 160.388 131.285 160.388 134.285 161.388 C136.328 160.83 136.328 160.83 138.472 159.951 C139.188 159.663 139.903 159.376 140.64 159.08 C141.183 158.851 141.726 158.623 142.285 158.388 C141.7 154.53 140.569 151.756 138.59 148.404 C138.314 147.936 138.314 147.936 136.918 145.568 C136.338 144.601 135.758 143.634 135.16 142.638 C134.603 141.687 134.046 140.736 133.472 139.755 C123.342 122.716 123.342 122.716 116.285 120.388 Z M142.285 124.388 C140.575 126.941 140.227 128.052 140.754 131.13 C141.885 134.569 143.052 137.985 144.285 141.388 C144.507 142.028 144.73 142.669 144.959 143.328 C145.639 145.258 146.361 147.167 147.097 149.076 C147.537 150.235 147.977 151.393 148.429 152.587 C150.285 155.388 150.285 155.388 153.984 156.783 C155.073 156.983 156.163 157.182 157.285 157.388 C156.955 159.038 156.625 160.688 156.285 162.388 C155.318 162.535 154.351 162.682 153.355 162.833 C144.132 164.372 136.127 166.547 129.285 173.388 C126.66 173.013 126.66 173.013 124.285 172.388 C124.529 171.373 124.774 170.358 125.025 169.312 C125.336 164.619 124.029 162.31 121.437 158.615 C121.028 158.006 120.619 157.396 120.198 156.769 C119.332 155.49 118.457 154.218 117.572 152.952 C116.224 151.015 114.918 149.054 113.615 147.087 C112.766 145.845 111.916 144.604 111.062 143.365 C110.674 142.779 110.287 142.194 109.887 141.591 C107.844 138.722 106.564 137.478 103.174 136.39 C100.285 136.388 100.285 136.388 97.285 138.388 C97.503 146.414 99.997 150.929 104.597 157.388 C105.221 158.295 105.845 159.202 106.487 160.137 C109.541 164.559 112.667 168.929 115.812 173.287 C116.356 174.045 116.901 174.803 117.461 175.583 C118.48 176.995 119.51 178.399 120.552 179.794 C123.54 183.898 125.426 187.344 126.285 192.388 C125.625 193.378 124.965 194.368 124.285 195.388 C123.691 195.255 123.096 195.123 122.484 194.986 C101.63 190.543 101.63 190.543 93.222 195.638 C91.736 198.414 92.456 200.455 93.285 203.388 C95.674 204.583 97.857 204.685 100.489 204.932 C113.451 206.201 123.306 210.599 134.285 217.58 C141.362 221.846 147.18 223.186 155.285 221.388 C157.299 220.766 159.305 220.113 161.285 219.388 C161.945 219.388 162.605 219.388 163.285 219.388 C163.45 220.543 163.45 220.543 164.285 226.388 C169.617 225.97 172.141 224.299 176.035 220.701 C176.979 219.851 177.922 219.002 178.894 218.126 C181.407 215.248 182.36 213.061 183.285 209.388 C181.305 208.728 179.325 208.068 177.285 207.388 C177.804 204.534 178.441 201.945 179.41 199.201 C181.797 188.801 177.91 178.344 172.492 169.443 C171.846 168.455 171.2 167.468 170.535 166.451 C166.766 160.631 164.24 154.651 161.722 148.201 C154.315 129.328 154.315 129.328 146.285 124.388 C144.965 124.388 143.645 124.388 142.285 124.388 Z M10.285 166.388 C3.93 173.775 -0.803 182.021 -5.605 190.452 C-6.553 192.105 -7.524 193.744 -8.5 195.38 C-8.963 196.167 -9.426 196.953 -9.903 197.763 C-10.095 198.087 -10.095 198.087 -11.071 199.724 C-11.715 201.388 -11.715 201.388 -10.715 204.388 C-8.649 205.337 -8.649 205.337 -6.153 206.076 C-5.739 206.201 -5.739 206.201 -3.649 206.837 C-3.011 207.019 -2.373 207.201 -1.715 207.388 C2.01 201.602 2.01 201.602 3.578 199.156 C5.494 196.167 7.418 193.186 9.371 190.22 C9.982 189.286 10.593 188.351 11.222 187.388 C11.495 186.976 11.495 186.976 12.875 184.888 C15.337 180.523 16.562 176.525 16.41 171.513 C16.401 171.123 16.401 171.123 16.355 169.146 C16.332 168.566 16.309 167.986 16.285 167.388 C15.295 167.223 15.295 167.223 10.285 166.388 Z M-16.09 170.201 C-24.701 177.376 -28.87 189.338 -32.653 199.576 C-34.42 204.125 -36.956 207.682 -39.836 211.595 C-48.503 224.479 -51.655 236.953 -48.715 252.388 C-50.365 253.378 -52.015 254.368 -53.715 255.388 C-50.315 262.052 -45.886 268.471 -38.715 271.388 C-37.725 271.388 -36.735 271.388 -35.715 271.388 C-35.055 269.738 -34.395 268.088 -33.715 266.388 C-33.109 266.46 -32.503 266.533 -31.879 266.607 C-29.16 266.908 -26.44 267.152 -23.715 267.388 C-22.9 267.48 -22.086 267.571 -21.246 267.666 C-11.939 268.285 -4.62 263.535 2.722 258.263 C11.342 252.357 21.037 250.957 31.289 250.759 C34.578 250.352 35.96 249.713 38.285 247.388 C38.785 244.888 38.785 244.888 38.285 242.388 C33.81 238.194 28.198 237.781 22.285 237.388 C18.848 237.743 15.618 238.5 12.285 239.388 C10.294 239.772 8.296 240.13 6.285 240.388 C5.285 239.388 5.285 239.388 4.922 236.294 C5.386 231.304 7.164 228.823 10.097 224.888 C10.344 224.543 10.344 224.543 11.59 222.797 C14.096 219.306 16.671 215.869 19.254 212.435 C34 192.791 34 192.791 33.285 183.388 C32.285 182.388 32.285 182.388 29.222 181.701 C23.932 182.624 22.695 184.689 19.617 188.927 C18.837 190.079 18.06 191.233 17.285 192.388 C16.781 193.123 16.278 193.857 15.759 194.614 C14.076 197.085 12.426 199.576 10.785 202.076 C10.244 202.883 9.703 203.69 9.146 204.522 C6.018 209.424 4.598 212.557 5.285 218.388 C4.295 218.718 3.305 219.048 2.285 219.388 C0.558 218.314 0.558 218.314 -1.34 216.701 C-8.829 210.821 -16.371 208.716 -25.715 207.388 C-25.715 206.068 -25.715 204.748 -25.715 203.388 C-24.824 203.277 -23.934 203.166 -23.016 203.052 C-17.83 200.438 -16.876 196.015 -14.903 190.763 C-14.509 189.79 -14.115 188.817 -13.709 187.814 C-11.542 182.29 -10.144 177.309 -9.715 171.388 C-12.21 169.632 -13.144 169.193 -16.09 170.201 Z M181.285 225.388 C179.597 227.388 179.597 227.388 178.285 229.388 C178.784 229.913 179.283 230.437 179.797 230.978 C209.941 263.504 209.941 263.504 211.66 281.263 C211.598 281.779 211.598 281.779 211.285 284.388 C206.89 287.318 203.452 286.993 198.285 286.388 C179.702 282.275 162.657 272.718 146.86 262.416 C146.027 261.877 145.194 261.338 144.336 260.783 C143.6 260.296 142.864 259.81 142.106 259.309 C141.505 259.005 140.904 258.701 140.285 258.388 C139.955 258.553 139.955 258.553 138.285 259.388 C139.089 261.297 139.93 263.19 140.785 265.076 C141.249 266.131 141.713 267.187 142.191 268.275 C144.95 272.377 147.982 274.096 152.285 276.388 C153.094 276.825 153.903 277.261 154.736 277.711 C157.403 279.117 160.087 280.479 162.785 281.826 C163.747 282.306 164.709 282.786 165.699 283.281 C180.665 290.637 196.257 297.505 213.285 295.388 C216.565 293.987 218.423 292.425 220.285 289.388 C223.004 281.23 219.422 273.142 216.031 265.599 C209.146 252.3 199.66 241.057 189.285 230.388 C188.404 229.441 187.524 228.493 186.617 227.517 C184.285 225.388 184.285 225.388 181.285 225.388 Z M-81.715 225.388 C-90.065 231.003 -98.064 236.831 -105.715 243.388 C-106.5 244.061 -107.285 244.734 -108.094 245.427 C-144.132 277.131 -144.132 277.131 -145.918 295.474 C-146.016 300.248 -146.021 303.642 -142.715 307.388 C-136.546 311.861 -129.645 311.014 -122.477 309.873 C-96.519 303.982 -73.384 287.467 -52.715 271.388 C-53.705 269.738 -54.695 268.088 -55.715 266.388 C-58.734 266.994 -60.792 267.924 -63.305 269.689 C-63.996 270.166 -64.687 270.642 -65.399 271.134 C-66.143 271.651 -66.886 272.168 -67.653 272.701 C-113.251 303.682 -113.251 303.682 -133.715 301.388 C-135.715 300.388 -135.715 300.388 -136.403 298.58 C-137.365 291.831 -132.617 284.841 -129.043 279.466 C-114.828 260.671 -95.806 244.94 -76.715 231.388 C-78.085 228.227 -78.704 227.395 -81.715 225.388 Z M-78.028 241.701 C-78.744 242.242 -79.46 242.784 -80.198 243.343 C-86.909 248.461 -93.361 253.836 -99.715 259.388 C-100.633 260.182 -101.551 260.976 -102.496 261.794 C-107.672 266.346 -112.351 271.056 -116.715 276.388 C-117.062 276.808 -117.062 276.808 -118.817 278.935 C-127.715 289.872 -127.715 289.872 -127.715 293.388 C-105.696 292.995 -79.358 274.253 -62.821 260.853 C-61.336 258.886 -61.315 257.455 -61.215 255.013 C-60.917 251.027 -59.902 248.767 -57.715 245.388 C-58.977 241.602 -60.264 241.17 -63.653 239.201 C-64.548 238.671 -65.444 238.141 -66.367 237.595 C-71.361 235.028 -74.072 238.689 -78.028 241.701 Z M-29.715 428.388 C-29.752 429.441 -29.79 430.495 -29.828 431.58 C-30.49 447.193 -33.269 461.143 -39.715 475.388 C-39.93 475.877 -39.93 475.877 -41.016 478.353 C-49.48 495.757 -67.828 506.362 -83.778 516.076 C-84.455 516.498 -85.133 516.92 -85.831 517.355 C-90.544 520.137 -94.265 520.959 -99.715 521.388 C-105.356 523.029 -105.356 523.029 -106.715 524.388 C-108.049 539.327 -104.221 553.555 -95.09 565.517 C-88.419 572.914 -80.303 573.788 -70.752 574.316 C-65.106 574.513 -58.999 574.625 -53.715 572.388 C-52.426 570.306 -52.426 570.306 -51.715 568.388 C-54.578 564.303 -56.876 562.519 -61.528 560.763 C-62.586 560.348 -63.644 559.933 -64.735 559.505 C-66.459 558.859 -68.185 558.216 -69.914 557.583 C-75.83 555.299 -78.288 551.564 -80.856 545.955 C-81.567 544.29 -82.27 542.622 -82.965 540.951 C-83.147 540.534 -83.147 540.534 -84.067 538.425 C-84.41 537.61 -84.752 536.795 -85.106 535.955 C-85.415 535.222 -85.725 534.489 -86.044 533.734 C-86.906 530.721 -87.154 528.505 -86.715 525.388 C-84.626 523.473 -84.626 523.473 -81.703 521.837 C-80.641 521.226 -79.579 520.614 -78.484 519.984 C-77.914 519.669 -77.914 519.669 -75.028 518.076 C-72.718 516.754 -70.417 515.417 -68.114 514.083 C-67.003 513.447 -65.893 512.811 -64.749 512.155 C-43.646 499.868 -31.001 483.472 -24.461 460.037 C-21.832 449.835 -20.928 439.904 -21.715 429.388 C-22.715 428.388 -22.715 428.388 -26.278 428.326 C-27.412 428.346 -28.546 428.367 -29.715 428.388 Z M46.285 431.388 C45.285 432.388 45.285 432.388 45.037 435.562 C45.308 439.75 46.226 441.956 48.25 445.599 C48.881 446.753 49.511 447.906 50.161 449.094 C50.498 449.693 50.834 450.292 51.181 450.909 C52.237 452.789 53.275 454.678 54.309 456.571 C56.287 460.184 58.285 463.787 60.285 467.388 C75.838 495.541 87.445 525.667 95.824 556.694 C96.122 557.793 96.42 558.892 96.726 560.025 C96.981 560.991 97.236 561.958 97.498 562.953 C98.285 565.388 98.285 565.388 100.285 568.388 C114.267 571.291 130.482 563.257 142.285 556.388 C149.775 551.406 158.284 545.104 161.285 536.388 C149.843 531.571 137 535.342 125.941 539.708 C119.754 542.627 114.649 546.212 109.539 550.751 C107.072 552.543 105.284 553.023 102.285 553.388 C102.235 553.009 102.235 553.009 101.98 551.091 C98.07 527.418 87.318 504.986 77.285 483.388 C76.825 482.384 76.365 481.38 75.89 480.346 C69.119 465.592 61.6 451.334 53.285 437.388 C52.902 436.735 52.519 436.081 52.124 435.408 C51.094 433.736 51.094 433.736 49.285 431.388 C48.295 431.388 47.305 431.388 46.285 431.388 Z " fill="#20242A" transform="translate(171.715087890625,17.61181640625)"/>
<path d="M0 0 C0.99 0.33 1.98 0.66 3 1 C3.707 3.517 4.258 5.941 4.75 8.5 C6.137 14.985 7.943 19.283 12.707 24.105 C14 26 14 26 13.699 28.738 C13.468 29.485 13.238 30.231 13 31 C7.698 30.353 5.846 28.248 2.582 24.23 C-2.238 17.435 -2.974 10.226 -2 2 C-1.34 1.34 -0.68 0.68 0 0 Z " fill="#20242A" transform="translate(318,198)"/>
<path d="M0 0 C3.875 0.875 3.875 0.875 5 2 C5.99 11.997 4.181 19.157 -1.938 27.062 C-4.09 29.44 -4.6 29.939 -7.875 30.438 C-8.576 30.293 -9.278 30.149 -10 30 C-10.293 26.917 -10.268 25.407 -8.539 22.781 C-7.907 22.028 -7.276 21.276 -6.625 20.5 C-2.807 15.389 -1.925 10.959 -1.289 4.688 C-1 2 -1 2 0 0 Z " fill="#20242A" transform="translate(152,244)"/>
<path d="M0 0 C17.178 5.351 30.615 14.564 39.285 30.566 C45.46 42.729 46.216 56.588 42.379 69.699 C36.144 86.044 23.855 96.747 8.223 103.984 C2.934 106.09 -0.07 106.621 -5.715 105.566 C-5.784 92.041 -5.838 78.516 -5.87 64.99 C-5.886 58.71 -5.907 52.431 -5.941 46.151 C-5.974 40.095 -5.992 34.039 -5.999 27.983 C-6.005 25.668 -6.016 23.353 -6.032 21.038 C-6.054 17.805 -6.057 14.573 -6.055 11.34 C-6.066 10.375 -6.077 9.41 -6.088 8.415 C-6.086 7.976 -6.086 7.976 -6.076 5.755 C-6.078 4.99 -6.081 4.225 -6.084 3.437 C-6.023 3.128 -6.023 3.128 -5.715 1.566 C-2.715 -0.434 -2.715 -0.434 0 0 Z M2.285 11.566 C2.204 30.093 2.439 48.606 2.785 67.129 C2.834 69.809 2.882 72.49 2.93 75.17 C3.046 81.635 3.164 88.101 3.285 94.566 C12.771 92.879 21.437 86.104 27.285 78.566 C34.077 67.357 37.638 55.712 34.598 42.602 C32.466 36.269 29.391 30.821 25.285 25.566 C24.807 24.95 24.329 24.334 23.836 23.699 C18.611 17.777 11.438 14.619 4.285 11.566 C3.625 11.566 2.965 11.566 2.285 11.566 Z " fill="#20242A" transform="translate(213.71484375,284.43359375)"/>
</svg>
