<?xml version="1.0" encoding="UTF-8"?>
<!-- Generator: visioncortex VTracer 0.6.12 -->
<svg version="1.1" xmlns="http://www.w3.org/2000/svg" width="200" height="734">
<path d="M0 0 C3.958 -0.029 7.917 -0.047 11.875 -0.062 C12.439 -0.067 12.439 -0.067 15.293 -0.088 C15.831 -0.09 15.831 -0.09 18.555 -0.098 C19.55 -0.103 20.545 -0.108 21.57 -0.114 C24 0 24 0 26 1 C27.319 4.965 27.339 9.109 27.562 13.25 C27.606 13.995 27.649 14.74 27.693 15.508 C27.799 17.338 27.9 19.169 28 21 C28.909 21.196 29.818 21.392 30.754 21.594 C48.331 25.776 63.357 33.903 73.473 49.422 C82.361 64.425 84.865 80.354 81.277 97.441 C76.784 113.917 66.458 124.635 51.988 132.95 C44.058 137.139 35.866 139.733 27 141 C27 158.82 27 176.64 27 195 C39.85 188.575 39.85 188.575 42.739 181.084 C43.691 178.202 44.557 175.312 45.315 172.372 C45.795 170.558 46.39 168.775 47 167 C50.771 165.743 53.789 166.348 57.625 166.926 C57.997 166.98 57.997 166.98 59.877 167.252 C61.448 167.481 63.018 167.715 64.588 167.951 C66.989 168.311 69.393 168.655 71.797 168.998 C73.323 169.223 74.849 169.449 76.375 169.676 C77.094 169.778 77.813 169.88 78.553 169.985 C82.016 170.518 84.034 171.023 87 173 C87.258 175.977 87.258 175.977 87.125 179.625 C86.977 184.186 87.138 188.443 87.764 192.964 C88.161 196.391 88.147 199.804 88.125 203.25 C88.123 203.981 88.121 204.713 88.119 205.467 C88.07 211.675 87.666 217.826 87 224 C87.322 224.145 87.322 224.145 88.949 224.879 C91 226 91 226 91.812 227.938 C92 230 92 230 91 233 C91.303 233.718 91.606 234.436 91.918 235.176 C93.327 238.852 93.342 242.306 93.312 246.188 C93.31 246.564 93.31 246.564 93.298 248.469 C93.152 255.434 92.731 262.117 87.75 267.375 C87.296 267.643 87.296 267.643 85 269 C84.45 269.38 83.899 269.761 83.332 270.152 C80.254 272.17 78.393 273.022 74.688 272.812 C72 272 72 272 70 271 C68.824 270.835 67.649 270.67 66.438 270.5 C63 270 63 270 62 269 C60.962 261.141 64.221 255.747 68 249 C67.484 249.268 67.484 249.268 64.875 250.625 C61.87 251.914 61.028 252.005 57.625 251.438 C55 250 55 250 53.938 248.188 C54.074 243.412 57.916 239.796 61 236.438 C63.002 234.25 64.902 232.137 66.625 229.723 C67.079 229.154 67.532 228.586 68 228 C68.66 228 69.32 228 70 228 C70.062 227.216 70.124 226.433 70.188 225.625 C70.456 224.759 70.724 223.893 71 223 C71.825 222.67 71.825 222.67 76 221 C75.67 216.71 75.34 212.42 75 208 C74.484 208.65 74.484 208.65 71.875 211.938 C64.791 219.929 54.77 225.839 45 230 C43.68 230 42.36 230 41 230 C41.349 231.002 41.699 232.003 42.059 233.035 C42.519 234.377 42.978 235.72 43.438 237.062 C43.668 237.719 43.898 238.376 44.135 239.053 C50.155 256.766 45.689 274.181 39 291 C38.67 291.66 38.34 292.32 38 293 C38.594 292.954 39.189 292.907 39.801 292.859 C48.119 292.497 55.794 294.377 62.625 299.312 C65.551 302.624 66.081 304.607 66 309 C63.433 312.312 60.766 312.944 56.789 313.715 C45.507 314.868 33.04 313.232 24 306 C21.469 302.204 21.578 300.52 22 296 C23.016 293.028 24.368 290.255 25.75 287.438 C33.271 271.267 36.453 257.48 31 240 C30.042 237.979 29.053 235.973 28 234 C27.975 234.57 27.95 235.141 27.924 235.728 C27.808 238.298 27.686 240.868 27.562 243.438 C27.523 244.335 27.484 245.233 27.443 246.158 C27.401 247.012 27.36 247.866 27.316 248.746 C27.28 249.537 27.243 250.328 27.205 251.142 C27 253 27 253 26 254 C21.86 254.253 17.709 254.185 13.562 254.188 C12.391 254.2 11.22 254.212 10.014 254.225 C8.897 254.227 7.78 254.228 6.629 254.23 C6.114 254.233 6.114 254.233 3.506 254.243 C1 254 1 254 -1 252 C-1.227 250.029 -1.227 250.029 -1.195 247.648 C-1.189 246.798 -1.182 245.947 -1.176 245.07 C-1.167 244.626 -1.167 244.626 -1.125 242.375 C-1.116 241.478 -1.107 240.581 -1.098 239.656 C-1.074 237.437 -1.041 235.219 -1 233 C-6.813 238.358 -7.672 245.863 -8.043 253.422 C-7.886 266.485 -3.538 277.484 1.683 289.308 C6.083 299.55 6.083 299.55 4 305 C0.006 309.314 -3.894 311.036 -9.625 312.312 C-10.324 312.476 -11.024 312.639 -11.744 312.807 C-20.787 314.78 -29.637 315.491 -38 311 C-39.688 308.625 -39.688 308.625 -40 306 C-37.911 300.962 -34.432 298.127 -29.547 295.863 C-23.442 293.433 -18.522 292.773 -12 293 C-12.205 292.403 -12.205 292.403 -13.242 289.379 C-13.787 287.774 -14.331 286.168 -14.875 284.562 C-15.144 283.779 -15.414 282.996 -15.691 282.189 C-18.721 273.211 -20.347 265.062 -20.312 255.562 C-20.321 255.124 -20.321 255.124 -20.361 252.904 C-20.367 244.689 -18.254 237.51 -15 230 C-15.519 229.758 -15.519 229.758 -18.148 228.531 C-30.12 222.828 -39.604 216.453 -48 206 C-48.089 211.092 -48.173 216.014 -47 221 C-45 222.688 -45 222.688 -43 224 C-42.928 224.309 -42.928 224.309 -42.562 225.875 C-41.704 229.119 -39.381 230.672 -37 233 C-35.422 234.991 -33.92 237.024 -32.43 239.082 C-31 241 -31 241 -28.562 243.688 C-27 246 -27 246 -27.062 248.688 C-28 251 -28 251 -31 253 C-34.831 252.681 -36.767 252.155 -40 250 C-39.544 251.396 -39.085 252.792 -38.625 254.188 C-38.354 255.011 -38.084 255.835 -37.805 256.684 C-37 259 -37 259 -35.75 261.75 C-34.81 264.57 -35.091 266.196 -36 269 C-36.66 269.66 -37.32 270.32 -38 271 C-40.333 271 -42.667 271 -45 271 C-45.66 271.66 -46.32 272.32 -47 273 C-53.219 272.661 -53.219 272.661 -55.625 270.625 C-55.852 270.357 -55.852 270.357 -57 269 C-57.825 268.526 -58.65 268.051 -59.5 267.562 C-64.557 264.402 -65.628 260.666 -67 255 C-67.183 252.307 -67.286 249.748 -67.25 247.062 C-67.248 246.711 -67.248 246.711 -67.238 244.932 C-67.155 239.946 -66.432 235.744 -65 231 C-65.041 230.072 -65.082 229.144 -65.125 228.188 C-65.084 227.466 -65.043 226.744 -65 226 C-64.345 225.587 -63.69 225.174 -63.014 224.749 C-61 223 -61 223 -60.562 220.2 C-60.589 219.087 -60.616 217.975 -60.645 216.828 C-60.662 215.606 -60.679 214.384 -60.697 213.125 C-60.735 211.846 -60.773 210.567 -60.812 209.25 C-60.865 206.734 -60.913 204.219 -60.957 201.703 C-60.988 200.586 -61.018 199.469 -61.05 198.317 C-60.997 194.799 -60.502 191.48 -60 188 C-59.956 185.872 -59.959 183.742 -60.008 181.613 C-60.025 180.427 -60.041 179.24 -60.059 178.018 C-60.103 175.567 -60.154 173.116 -60.215 170.666 C-60.401 155.045 -55.999 139.315 -44.957 127.75 C-39.878 123.208 -34.891 118.969 -28 118 C-28 119.32 -28 120.64 -28 122 C-30.16 123.859 -30.16 123.859 -33.062 125.75 C-41.694 131.755 -46.997 138.265 -51 148 C-51.321 148.773 -51.642 149.547 -51.973 150.344 C-56.307 163.086 -55.91 179.918 -50 192 C-49.514 193.002 -49.028 194.003 -48.527 195.035 C-40.268 210.48 -27.271 219.383 -11 225 C-7.52 225.906 -4.043 226.703 -0.52 227.422 C2 228 2 228 3 229 C3.157 230.486 3.251 231.979 3.316 233.473 C3.358 234.372 3.4 235.271 3.443 236.197 C3.483 237.143 3.522 238.088 3.562 239.062 C3.606 240.012 3.649 240.961 3.693 241.939 C3.8 244.293 3.9 246.646 4 249 C10.27 249 16.54 249 23 249 C22.67 242.73 22.34 236.46 22 230 C25.737 228.505 28.98 227.514 32.875 226.708 C48.342 223.47 61.904 216.583 71.406 203.539 C76.799 194.948 79.968 185.893 82 176 C80.924 175.879 79.847 175.758 78.738 175.633 C69.789 174.611 60.891 173.453 52 172 C51.853 172.534 51.706 173.067 51.555 173.617 C48.345 184.278 42.948 193.402 33.109 199.094 C29.689 200.7 26.759 201.342 23 201 C22.254 196.994 21.867 193.191 21.839 189.118 C21.829 187.984 21.82 186.85 21.81 185.681 C21.806 184.471 21.801 183.262 21.797 182.016 C21.791 180.764 21.785 179.512 21.78 178.222 C21.77 175.583 21.763 172.943 21.76 170.304 C21.754 166.919 21.73 163.534 21.702 160.149 C21.679 156.917 21.677 153.685 21.672 150.453 C21.66 149.235 21.647 148.018 21.634 146.763 C21.637 145.642 21.64 144.52 21.644 143.364 C21.642 142.869 21.642 142.869 21.633 140.364 C21.754 139.584 21.875 138.804 22 138 C25.326 135.782 27.803 135.259 31.688 134.375 C43.63 131.4 55.473 126.069 64 117 C64.538 116.47 65.075 115.94 65.629 115.395 C75.068 105.435 77.595 92.334 77.242 79.094 C76.627 66.045 71.728 53.184 62.711 43.547 C52.993 34.761 41.933 30.125 29.306 27.343 C24.196 26.196 24.196 26.196 22 24 C21.773 22.029 21.773 22.029 21.805 19.648 C21.81 18.882 21.815 18.115 21.82 17.326 C21.838 16.352 21.856 15.378 21.875 14.375 C21.916 11.281 21.957 8.188 22 5 C15.73 5 9.46 5 3 5 C3.125 14.375 3.125 14.375 3.18 17.326 C3.185 18.092 3.19 18.859 3.195 19.648 C3.206 20.434 3.216 21.219 3.227 22.029 C3 24 3 24 1 26 C-1.415 26.621 -3.813 27.168 -6.25 27.688 C-21.391 31.249 -34.912 38.5 -43.403 51.988 C-47.685 59.282 -50.101 66.779 -52 75 C-51.452 75.037 -50.904 75.075 -50.34 75.113 C-42.422 75.77 -34.759 77.355 -27 79 C-27.046 78.322 -27.093 77.644 -27.141 76.945 C-27.469 68.471 -25.64 62.338 -21.25 55.125 C-17.191 51.291 -13.024 49.289 -7.5 48.5 C-1.895 49.301 2.302 51.302 6.312 55.312 C11.629 63.779 12.863 72.176 12 82 C10.097 89.985 7.138 96.179 0.25 100.875 C-5.128 102.737 -9.79 102.737 -15.188 100.938 C-20.217 97.473 -24.335 92.992 -26 87 C-26 86.01 -26 85.02 -26 84 C-26.825 83.89 -27.65 83.781 -28.5 83.668 C-35.301 82.734 -42.062 81.684 -48.812 80.438 C-49.512 80.311 -50.211 80.184 -50.932 80.053 C-55.879 79.121 -55.879 79.121 -57 78 C-57.325 65.837 -52.366 54.46 -45 45 C-44.415 44.239 -43.83 43.479 -43.227 42.695 C-34.187 31.737 -20.755 25.088 -7 22 C-5.334 21.973 -3.666 21.969 -2 22 C-2.023 20.831 -2.046 19.662 -2.07 18.457 C-2.089 16.909 -2.107 15.361 -2.125 13.812 C-2.142 13.044 -2.159 12.275 -2.176 11.482 C-2.182 10.732 -2.189 9.981 -2.195 9.207 C-2.206 8.521 -2.216 7.835 -2.227 7.128 C-1.948 4.508 -1.06 2.4 0 0 Z M-20.25 59.75 C-24.695 68.005 -25.248 77.158 -22.691 86.152 C-20.765 91.3 -17.586 95.052 -13 98 C-8.146 99.477 -4.646 98.991 0 97 C6.916 90.844 8.405 84.295 8.965 75.293 C9.057 66.693 6.626 61.052 0.875 54.625 C-7.131 50.1 -14.708 52.977 -20.25 59.75 Z M-56 193 C-57.701 194.701 -57.13 196.883 -57.133 199.207 C-57.134 200.269 -57.135 201.33 -57.137 202.424 C-57.133 203.542 -57.129 204.66 -57.125 205.812 C-57.129 206.919 -57.133 208.026 -57.137 209.166 C-57.135 210.231 -57.134 211.297 -57.133 212.395 C-57.132 213.373 -57.131 214.351 -57.129 215.359 C-57.013 217.731 -56.676 219.732 -56 222 C-54.68 222 -53.36 222 -52 222 C-51.912 218.479 -51.859 214.959 -51.812 211.438 C-51.787 210.447 -51.762 209.456 -51.736 208.436 C-51.677 202.469 -52.176 198.285 -55 193 C-55.33 193 -55.66 193 -56 193 Z M82 194 C80.365 197.617 79.719 200.56 79.586 204.52 C79.547 205.541 79.509 206.563 79.469 207.615 C79.438 208.67 79.407 209.725 79.375 210.812 C79.336 211.887 79.298 212.961 79.258 214.068 C79.164 216.712 79.078 219.356 79 222 C80.32 222 81.64 222 83 222 C84.254 216.214 84.112 210.511 84.062 204.625 C84.058 203.603 84.053 202.581 84.049 201.527 C84.037 199.018 84.021 196.509 84 194 C83.34 194 82.68 194 82 194 Z M-61 227 C-61 227.66 -61 228.32 -61 229 C-60.34 229 -59.68 229 -59 229 C-60.861 233.784 -60.861 233.784 -62.051 235.625 C-63.513 239.283 -63.328 242.847 -63.312 246.75 C-63.329 247.523 -63.345 248.297 -63.361 249.094 C-63.366 254.703 -62.227 258.853 -60 264 C-59.67 263.835 -59.67 263.835 -58 263 C-58.66 258.71 -59.32 254.42 -60 250 C-59.34 250.33 -58.68 250.66 -58 251 C-57.076 254.135 -56.315 257.269 -55.588 260.453 C-53.979 267.044 -53.979 267.044 -51 269 C-50.01 269 -49.02 269 -48 269 C-48.144 268.361 -48.144 268.361 -48.875 265.125 C-49.994 260.098 -51.008 255.053 -52 250 C-50 251 -50 251 -49.035 253.582 C-48.389 255.728 -47.743 257.874 -47.098 260.02 C-46.037 262.901 -45.173 264.837 -43 267 C-41.68 267 -40.36 267 -39 267 C-39.899 261.917 -41.538 257.144 -43.16 252.254 C-43.995 249.02 -44.155 246.322 -44 243 C-41.426 244.545 -38.874 246.084 -36.375 247.75 C-35.591 248.163 -34.808 248.575 -34 249 C-33.01 248.67 -32.02 248.34 -31 248 C-32.081 245.347 -33.202 243.798 -35.25 241.75 C-38.057 238.943 -40.225 236.026 -42.473 232.77 C-44.162 230.812 -45.688 230.091 -48 229 C-48.33 228.34 -48.66 227.68 -49 227 C-48.34 227 -47.68 227 -47 227 C-47 226.34 -47 225.68 -47 225 C-52.066 224.747 -56.158 225.664 -61 227 Z M75 225 C75 226.32 75 227.64 75 229 C73.363 230.048 71.691 231.041 70 232 C67.902 234.375 67.902 234.375 65.938 237 C63.52 240.217 61.343 242.737 58 245 C58.33 245.99 58.66 246.98 59 248 C63.142 247.54 65.248 247.145 68 244 C68.99 243.67 69.98 243.34 71 243 C69.369 254.685 69.369 254.685 67.375 258.938 C66.019 261.958 65.704 263.744 66 267 C67.832 266.793 67.832 266.793 70 266 C73.313 261.258 75.543 255.783 76 250 C76.66 250.33 77.32 250.66 78 251 C76.911 256.758 75.707 262.392 74 268 C75.32 268.33 76.64 268.66 78 269 C80.609 263.644 82.506 258.637 83.508 252.75 C83.67 252.173 83.833 251.595 84 251 C84.66 250.67 85.32 250.34 86 250 C85.34 254.95 84.68 259.9 84 265 C89.243 259.757 90.141 251.951 90.375 244.688 C90.287 241.468 89.8 239.101 88.438 236.188 C86.898 232.773 86.839 231.482 88 228 C84.838 225.892 83.493 225.662 79.812 225.375 C78.911 225.3 78.01 225.225 77.082 225.148 C76.395 225.099 75.708 225.05 75 225 Z M-11 231 C-18.748 246.571 -18.621 262.692 -13.301 279.164 C-11.197 285.227 -9.006 291.319 -6 297 C-6.967 296.954 -7.934 296.907 -8.93 296.859 C-18.249 296.601 -26.25 296.928 -33.625 303.25 C-33.852 303.539 -33.852 303.539 -35 305 C-34.67 305.99 -34.34 306.98 -34 308 C-24.528 312.406 -12.904 309.355 -3.426 306.328 C-0.236 304.582 0.851 303.475 2 300 C0.97 297.067 -0.095 294.699 -1.562 292 C-2.333 290.47 -3.097 288.938 -3.855 287.402 C-4.228 286.651 -4.602 285.899 -4.986 285.125 C-12.537 269.306 -13.738 251.301 -8.375 234.75 C-7.921 233.513 -7.468 232.275 -7 231 C-8.32 231 -9.64 231 -11 231 Z M32 232 C32.277 232.736 32.554 233.472 32.84 234.23 C33.202 235.206 33.564 236.182 33.938 237.188 C34.297 238.15 34.657 239.113 35.027 240.105 C41.054 258.04 36.05 275.932 28.125 292.25 C27.803 292.87 27.48 293.491 27.148 294.13 C25.891 296.615 24.974 298.47 25.113 301.289 C26.722 304.393 29.886 305.729 33 307 C38.713 308.701 43.807 309.313 49.75 309.25 C50.491 309.258 51.232 309.265 51.996 309.273 C55.808 309.26 58.77 309.142 62 307 C61.805 305.168 61.805 305.168 61 303 C58.82 301.551 58.82 301.551 56.125 300.312 C55.241 299.896 54.356 299.48 53.445 299.051 C48.778 297.045 44.816 296.881 39.812 296.938 C39.063 296.942 38.313 296.947 37.541 296.951 C35.694 296.963 33.847 296.981 32 297 C32.387 296.201 32.773 295.402 33.172 294.578 C42.064 275.825 46.469 257.986 40.07 237.723 C39 235 39 235 37 232 C34.375 231.812 34.375 231.812 32 232 Z " fill="#20242A" transform="translate(87,398)"/>
<path d="M0 0 C6.03 3.329 8.433 7.967 10.812 14.312 C13.085 23.919 12.347 33.553 7.746 42.352 C4.972 46.654 1.723 49.695 -3.188 51.312 C-8.424 52.219 -12.816 51.92 -17.5 49.312 C-23.319 45.139 -26.49 39.248 -27.91 32.309 C-29.299 22.315 -27.22 13.955 -21.84 5.484 C-16.466 -1.579 -8.121 -3.757 0 0 Z M-17.953 5.867 C-24.263 12.759 -24.805 20.327 -24.57 29.312 C-24.13 36.025 -21.304 40.902 -16.938 45.875 C-11.984 48.464 -7.361 48.952 -2 47.375 C3.526 43.323 7.282 38.161 8.566 31.371 C9.637 22.417 8.748 13.697 3.125 6.312 C0.367 3.439 -2.176 2.008 -6.109 1.34 C-10.81 1.278 -14.44 2.773 -17.953 5.867 Z " fill="#20242A" transform="translate(129.1875,448.6875)"/>
<path d="M0 0 C4.074 1.259 5.255 2.454 7.438 6.062 C9.142 11.586 9.313 17.542 7.125 22.938 C5.096 26.695 4.074 28.46 0.062 29.938 C-3.441 30.104 -4.828 29.221 -7.562 27.062 C-9.466 24.588 -10.562 23.086 -10.562 19.938 C-9.146 17.282 -7.19 16.41 -4.562 15.062 C-6.543 13.743 -8.522 12.423 -10.562 11.062 C-9.738 7.166 -9.022 4.587 -6.375 1.562 C-3.562 0.062 -3.562 0.062 0 0 Z " fill="#20242A" transform="translate(82.5625,459.9375)"/>
<path d="M0 0 C3.983 3.187 5.696 6.605 6.336 11.648 C6.427 18.013 5.912 21.892 2 27 C-0.415 28.869 -1.461 29.027 -4.5 28.875 C-7.635 27.778 -8.996 26.649 -11 24 C-11.75 20.75 -11.75 20.75 -12 18 C-7.25 15 -7.25 15 -5 15 C-5 14.34 -5 13.68 -5 13 C-5.784 12.876 -6.567 12.752 -7.375 12.625 C-10 12 -10 12 -12 10 C-11.842 6.361 -11.421 4.502 -9.062 1.688 C-5.672 -1.086 -4.189 -1.297 0 0 Z " fill="#20242A" transform="translate(124,461)"/>
<path d="M0 0 C0.534 0.193 1.067 0.387 1.617 0.586 C15.026 5.272 26.302 6.378 39.723 0.84 C42 0 42 0 45 0 C44.797 1.863 44.797 1.863 44 4 C41.891 5.23 41.891 5.23 39.25 6.188 C38.389 6.511 37.528 6.835 36.641 7.168 C26.197 10.459 14.112 10.317 4 6 C0.875 4.312 0.875 4.312 -1 3 C-0.67 2.01 -0.34 1.02 0 0 Z " fill="#20242A" transform="translate(78,505)"/>
<path d="M0 0 C1.189 4.68 1.151 9.206 1.125 14 C1.123 14.889 1.121 15.778 1.119 16.694 C1.041 29.468 0.503 42.237 0 55 C-3.584 56.195 -5.325 55.533 -8.75 54.129 C-16.928 50.026 -22.131 44.249 -26 36 C-28.348 28.58 -27.417 21.312 -24.242 14.316 C-19.808 6.047 -10.027 -3.091 0 0 Z M-15 10 C-20.164 16.049 -22.389 21.447 -22.273 29.375 C-21.482 36.975 -16.634 42.225 -11 47 C-6.645 50 -6.645 50 -4 50 C-4 34.82 -4 19.64 -4 4 C-7.696 4 -12.174 7.9 -15 10 Z " fill="#20242A" transform="translate(90,543)"/>
</svg>
